<svg width="1388" height="168" viewBox="0 0 1388 168" fill="none" xmlns="http://www.w3.org/2000/svg">
<path d="M592.144 9.39999L592.612 8.51646V8.51646L592.144 9.39999ZM617.744 34.2L616.872 34.6903L616.876 34.6967L616.88 34.7032L617.744 34.2ZM617.744 107.4L616.877 106.902L616.872 106.91L617.744 107.4ZM591.944 132.2L591.48 131.314L591.475 131.316L591.944 132.2ZM500.744 141H499.744V142H500.744V141ZM500.744 0.599996V-0.400004H499.744V0.599996H500.744ZM534.944 29.8V28.8H533.944V29.8H534.944ZM534.944 111.4H533.944V112.4H534.944V111.4ZM553.344 1.6C568.01 1.6 580.777 4.5061 591.675 10.2835L592.612 8.51646C581.377 2.56055 568.277 -0.400004 553.344 -0.400004V1.6ZM591.675 10.2835C602.577 16.0627 610.968 24.1947 616.872 34.6903L618.615 33.7097C612.519 22.872 603.844 14.4707 592.612 8.51646L591.675 10.2835ZM616.88 34.7032C622.912 45.0637 625.944 57.0853 625.944 70.8H627.944C627.944 56.7813 624.842 44.403 618.608 33.6968L616.88 34.7032ZM625.944 70.8C625.944 84.3792 622.913 96.4036 616.877 106.902L618.611 107.898C624.841 97.0631 627.944 84.6875 627.944 70.8H625.944ZM616.872 106.91C610.97 117.402 602.515 125.534 591.48 131.314L592.408 133.086C603.773 127.133 612.517 118.731 618.615 107.89L616.872 106.91ZM591.475 131.316C580.576 137.095 567.875 140 553.344 140V142C568.146 142 581.178 139.039 592.412 133.084L591.475 131.316ZM553.344 140H500.744V142H553.344V140ZM501.744 141V0.599996H499.744V141H501.744ZM500.744 1.6H553.344V-0.400004H500.744V1.6ZM551.144 112.4C564.262 112.4 574.609 108.812 582.044 101.514L580.643 100.086C573.679 106.922 563.892 110.4 551.144 110.4V112.4ZM582.044 101.514C589.486 94.2097 593.144 83.9223 593.144 70.8H591.144C591.144 83.5444 587.602 93.2569 580.643 100.086L582.044 101.514ZM593.144 70.8C593.144 57.6767 589.486 47.3277 582.051 39.8929L580.637 41.3071C587.602 48.2723 591.144 58.0566 591.144 70.8H593.144ZM582.051 39.8929C574.616 32.4581 564.267 28.8 551.144 28.8V30.8C563.887 30.8 573.671 34.3419 580.637 41.3071L582.051 39.8929ZM551.144 28.8H534.944V30.8H551.144V28.8ZM533.944 29.8V111.4H535.944V29.8H533.944ZM534.944 112.4H551.144V110.4H534.944V112.4Z" fill="white"/>
<path d="M620.941 118.152V119.152H621.833L621.935 118.267L620.941 118.152ZM583.789 118.152V117.152H582.709L582.792 118.229L583.789 118.152ZM586.957 125.832L586.263 126.551L586.275 126.564L586.288 126.575L586.957 125.832ZM602.509 123.24V122.24H601.87L601.602 122.82L602.509 123.24ZM619.981 123.24L620.95 123.487L621.268 122.24H619.981V123.24ZM615.085 132.744L614.32 132.1L614.311 132.111L615.085 132.744ZM606.349 139.368L606.763 140.278L606.349 139.368ZM580.525 138.408L580.045 139.285L580.525 138.408ZM570.925 128.808L571.8 128.324L570.925 128.808ZM570.829 99.624L569.954 99.1395L569.949 99.1499L570.829 99.624ZM580.429 90.024L580.909 90.9014L580.429 90.024ZM608.365 89.928L607.89 90.808L608.365 89.928ZM617.773 99.24L616.899 99.7257L616.905 99.7361L617.773 99.24ZM604.429 109.032V110.032H605.429V109.032H604.429ZM601.549 102.312L602.204 101.556L601.549 102.312ZM587.341 102.216L586.701 101.448L586.695 101.453L586.688 101.459L587.341 102.216ZM583.885 109.032L582.897 108.882L582.722 110.032H583.885V109.032ZM620.229 113.352C620.229 114.846 620.136 116.408 619.948 118.037L621.935 118.267C622.131 116.568 622.229 114.93 622.229 113.352H620.229ZM620.941 117.152H583.789V119.152H620.941V117.152ZM582.792 118.229C583.061 121.727 584.184 124.544 586.263 126.551L587.652 125.113C586.019 123.536 585.029 121.233 584.786 118.075L582.792 118.229ZM586.288 126.575C588.405 128.48 590.984 129.424 593.965 129.424V127.424C591.443 127.424 589.35 126.64 587.626 125.089L586.288 126.575ZM593.965 129.424C596.154 129.424 598.079 128.961 599.692 127.983C601.309 127.002 602.546 125.542 603.417 123.66L601.602 122.82C600.873 124.394 599.885 125.526 598.655 126.273C597.419 127.023 595.872 127.424 593.965 127.424V129.424ZM602.509 124.24H619.981V122.24H602.509V124.24ZM619.012 122.993C618.154 126.365 616.592 129.398 614.32 132.1L615.851 133.388C618.314 130.458 620.017 127.155 620.95 123.487L619.012 122.993ZM614.311 132.111C612.111 134.801 609.325 136.917 605.935 138.458L606.763 140.278C610.414 138.619 613.452 136.319 615.859 133.377L614.311 132.111ZM605.935 138.458C602.561 139.992 598.768 140.768 594.541 140.768V142.768C599.018 142.768 603.098 141.944 606.763 140.278L605.935 138.458ZM594.541 140.768C589.44 140.768 584.936 139.681 581.005 137.531L580.045 139.285C584.306 141.615 589.147 142.768 594.541 142.768V140.768ZM581.005 137.531C577.079 135.383 574.014 132.321 571.8 128.324L570.05 129.292C572.444 133.615 575.78 136.953 580.045 139.285L581.005 137.531ZM571.8 128.324C569.591 124.335 568.469 119.644 568.469 114.216H566.469C566.469 119.924 567.651 124.961 570.05 129.292L571.8 128.324ZM568.469 114.216C568.469 108.784 569.561 104.088 571.71 100.098L569.949 99.1499C567.617 103.48 566.469 108.512 566.469 114.216H568.469ZM571.704 100.108C573.918 96.111 576.983 93.0487 580.909 90.9014L579.949 89.1466C575.684 91.4793 572.348 94.817 569.954 99.1395L571.704 100.108ZM580.909 90.9014C584.839 88.7524 589.374 87.664 594.541 87.664V85.664C589.085 85.664 584.212 86.8156 579.949 89.1466L580.909 90.9014ZM594.541 87.664C599.582 87.664 604.023 88.7206 607.89 90.808L608.84 89.048C604.644 86.7834 599.869 85.664 594.541 85.664V87.664ZM607.89 90.808C611.753 92.8927 614.751 95.8593 616.899 99.7256L618.647 98.7544C616.315 94.5567 613.041 91.3153 608.84 89.048L607.89 90.808ZM616.905 99.7361C619.11 103.595 620.229 108.122 620.229 113.352H622.229C622.229 107.83 621.045 102.949 618.641 98.7439L616.905 99.7361ZM605.429 109.032C605.429 105.961 604.369 103.432 602.204 101.556L600.894 103.068C602.57 104.52 603.429 106.471 603.429 109.032H605.429ZM602.204 101.556C600.078 99.7137 597.436 98.816 594.349 98.816V100.816C597.023 100.816 599.18 101.582 600.894 103.068L602.204 101.556ZM594.349 98.816C591.389 98.816 588.819 99.6826 586.701 101.448L587.981 102.984C589.703 101.549 591.806 100.816 594.349 100.816V98.816ZM586.688 101.459C584.615 103.246 583.372 105.755 582.897 108.882L584.874 109.182C585.294 106.421 586.356 104.386 587.994 102.973L586.688 101.459ZM583.885 110.032H604.429V108.032H583.885V110.032ZM639.502 139.368L639.903 138.452L639.502 139.368ZM630.861 132.84L630.061 133.44L630.068 133.449L630.861 132.84ZM627.309 123.432V122.432H626.233L626.312 123.506L627.309 123.432ZM643.534 123.432L644.528 123.329L644.435 122.432H643.534V123.432ZM646.126 127.944L646.726 127.144L646.126 127.944ZM656.493 128.52L657.07 129.337L657.079 129.331L656.493 128.52ZM655.822 121.992L655.389 122.894L655.404 122.901L655.419 122.907L655.822 121.992ZM648.046 119.496L648.288 118.526L648.28 118.524L648.273 118.522L648.046 119.496ZM638.445 116.712L638.074 117.64L638.084 117.645L638.094 117.648L638.445 116.712ZM631.822 112.008L631.061 112.657L631.065 112.663L631.07 112.668L631.822 112.008ZM631.534 94.92L630.705 94.3605L630.701 94.3653L631.534 94.92ZM639.021 88.872L638.617 87.9574L638.61 87.9604L639.021 88.872ZM666.67 91.656L666.015 92.4117L666.021 92.417L666.67 91.656ZM673.39 104.904V105.904H674.5L674.384 104.8L673.39 104.904ZM658.221 104.904L657.231 105.041L657.35 105.904H658.221V104.904ZM655.726 100.488L655.096 101.265L655.105 101.272L655.114 101.279L655.726 100.488ZM645.934 100.008L646.5 100.832L646.517 100.82L646.534 100.808L645.934 100.008ZM646.798 106.44L646.365 107.342L646.372 107.345L646.378 107.348L646.798 106.44ZM654.478 108.744L654.727 107.776L654.711 107.771L654.694 107.768L654.478 108.744ZM664.174 111.816L663.794 112.741L663.804 112.745L663.815 112.749L664.174 111.816ZM670.701 116.616L669.931 117.254L669.941 117.266L669.952 117.278L670.701 116.616ZM673.678 125.448H674.678V125.439L674.677 125.431L673.678 125.448ZM670.99 133.896L670.177 133.313L670.174 133.317L670.99 133.896ZM663.406 139.656L663.016 138.735L663.009 138.738L663.406 139.656ZM651.981 140.768C647.424 140.768 643.405 139.988 639.903 138.452L639.1 140.284C642.894 141.948 647.195 142.768 651.981 142.768V140.768ZM639.903 138.452C636.386 136.91 633.65 134.831 631.655 132.231L630.068 133.449C632.297 136.353 635.321 138.626 639.1 140.284L639.903 138.452ZM631.661 132.24C629.662 129.574 628.548 126.62 628.307 123.358L626.312 123.506C626.583 127.156 627.837 130.474 630.062 133.44L631.661 132.24ZM627.309 124.432H643.534V122.432H627.309V124.432ZM642.539 123.535C642.76 125.677 643.774 127.43 645.525 128.744L646.726 127.144C645.405 126.154 644.691 124.899 644.528 123.329L642.539 123.535ZM645.525 128.744C647.262 130.047 649.371 130.672 651.789 130.672V128.672C649.728 128.672 648.061 128.145 646.726 127.144L645.525 128.744ZM651.789 130.672C653.94 130.672 655.745 130.272 657.07 129.337L655.917 127.703C655.066 128.304 653.735 128.672 651.789 128.672V130.672ZM657.079 129.331C658.458 128.335 659.221 126.992 659.221 125.352H657.221C657.221 126.272 656.833 127.041 655.908 127.709L657.079 129.331ZM659.221 125.352C659.221 124.401 658.97 123.528 658.435 122.779C657.906 122.038 657.145 121.482 656.224 121.077L655.419 122.907C656.098 123.206 656.537 123.562 656.808 123.941C657.073 124.312 657.221 124.767 657.221 125.352H659.221ZM656.254 121.09C654.558 120.276 651.883 119.425 648.288 118.526L647.803 120.466C651.376 121.359 653.885 122.172 655.389 122.894L656.254 121.09ZM648.273 118.522C644.458 117.632 641.303 116.715 638.797 115.776L638.094 117.648C640.708 118.629 643.953 119.568 647.818 120.47L648.273 118.522ZM638.817 115.784C636.406 114.819 634.327 113.344 632.573 111.348L631.07 112.668C633.028 114.896 635.365 116.557 638.074 117.64L638.817 115.784ZM632.582 111.359C630.919 109.409 630.037 106.749 630.037 103.272H628.037C628.037 107.091 629.012 110.255 631.061 112.657L632.582 111.359ZM630.037 103.272C630.037 100.392 630.814 97.8023 632.366 95.4747L630.701 94.3653C628.925 97.0297 628.037 100.008 628.037 103.272H630.037ZM632.362 95.4795C633.971 93.0965 636.31 91.1916 639.433 89.7836L638.61 87.9604C635.205 89.4964 632.552 91.6235 630.705 94.3605L632.362 95.4795ZM639.426 89.7865C642.599 88.383 646.391 87.664 650.829 87.664V85.664C646.18 85.664 642.1 86.4169 638.617 87.9575L639.426 89.7865ZM650.829 87.664C657.388 87.664 662.408 89.2861 666.015 92.4117L667.324 90.9003C663.251 87.3699 657.711 85.664 650.829 85.664V87.664ZM666.021 92.417C669.713 95.5647 671.843 99.7373 672.395 105.008L674.384 104.8C673.784 99.0627 671.434 94.4033 667.318 90.895L666.021 92.417ZM673.39 103.904H658.221V105.904H673.39V103.904ZM659.212 104.767C658.922 102.667 657.964 100.954 656.337 99.6967L655.114 101.279C656.303 102.198 657.009 103.429 657.231 105.041L659.212 104.767ZM656.355 99.7108C654.786 98.4407 652.75 97.856 650.35 97.856V99.856C652.429 99.856 653.977 100.359 655.096 101.265L656.355 99.7108ZM650.35 97.856C648.316 97.856 646.598 98.2597 645.334 99.208L646.534 100.808C647.317 100.22 648.543 99.856 650.35 99.856V97.856ZM645.367 99.184C644.062 100.081 643.397 101.387 643.397 102.984H645.397C645.397 102.021 645.757 101.343 646.5 100.832L645.367 99.184ZM643.397 102.984C643.397 103.936 643.649 104.811 644.176 105.57C644.698 106.322 645.449 106.902 646.365 107.342L647.23 105.538C646.546 105.21 646.097 104.83 645.819 104.43C645.546 104.037 645.397 103.568 645.397 102.984H643.397ZM646.378 107.348C648.142 108.162 650.787 108.948 654.261 109.72L654.694 107.768C651.256 107.004 648.781 106.254 647.217 105.532L646.378 107.348ZM654.228 109.712C658.172 110.73 661.356 111.741 663.794 112.741L664.553 110.891C661.999 109.843 658.719 108.806 654.727 107.776L654.228 109.712ZM663.815 112.749C666.137 113.642 668.175 115.134 669.931 117.254L671.472 115.978C669.516 113.618 667.202 111.91 664.532 110.883L663.815 112.749ZM669.952 117.278C671.675 119.23 672.617 121.923 672.678 125.465L674.677 125.431C674.61 121.549 673.568 118.354 671.451 115.954L669.952 117.278ZM672.678 125.448C672.678 128.379 671.844 130.99 670.177 133.313L671.802 134.479C673.719 131.81 674.678 128.789 674.678 125.448H672.678ZM670.174 133.317C668.574 135.568 666.209 137.384 663.016 138.735L663.795 140.577C667.258 139.112 669.949 137.088 671.805 134.475L670.174 133.317ZM663.009 138.738C659.895 140.081 656.227 140.768 651.981 140.768V142.768C656.44 142.768 660.388 142.047 663.802 140.574L663.009 138.738ZM685.173 79.368L684.479 80.0878L684.492 80.1004L684.505 80.1126L685.173 79.368ZM685.173 66.696L685.853 67.4288L685.854 67.4279L685.173 66.696ZM699.189 66.696L698.495 67.4158L698.508 67.4284L698.521 67.4406L699.189 66.696ZM699.189 79.368L699.869 80.1008L699.87 80.0999L699.189 79.368ZM700.437 87.432H701.437V86.432H700.437V87.432ZM700.437 141V142H701.437V141H700.437ZM684.021 141H683.021V142H684.021V141ZM684.021 87.432V86.432H683.021V87.432H684.021ZM692.277 80.864C689.602 80.864 687.485 80.0976 685.84 78.6234L684.505 80.1126C686.573 81.9664 689.191 82.864 692.277 82.864V80.864ZM685.867 78.6482C684.271 77.1092 683.485 75.2573 683.485 73.032H681.485C681.485 75.7987 682.491 78.1708 684.479 80.0878L685.867 78.6482ZM683.485 73.032C683.485 70.7354 684.275 68.8938 685.853 67.4288L684.492 65.9632C682.486 67.8262 681.485 70.2086 681.485 73.032H683.485ZM685.854 67.4279C687.5 65.8958 689.613 65.104 692.277 65.104V63.104C689.181 63.104 686.558 64.0402 684.491 65.9641L685.854 67.4279ZM692.277 65.104C694.871 65.104 696.914 65.8916 698.495 67.4158L699.883 65.9762C697.88 64.0444 695.315 63.104 692.277 63.104V65.104ZM698.521 67.4406C700.159 68.9091 700.973 70.7474 700.973 73.032H702.973C702.973 70.1966 701.93 67.8109 699.856 65.9514L698.521 67.4406ZM700.973 73.032C700.973 75.2454 700.164 77.0938 698.507 78.6361L699.87 80.0999C701.926 78.1862 702.973 75.8106 702.973 73.032H700.973ZM698.508 78.6352C696.929 80.1014 694.881 80.864 692.277 80.864V82.864C695.304 82.864 697.864 81.9625 699.869 80.1008L698.508 78.6352ZM699.437 87.432V141H701.437V87.432H699.437ZM700.437 140H684.021V142H700.437V140ZM685.021 141V87.432H683.021V141H685.021ZM684.021 88.432H700.437V86.432H684.021V88.432ZM742.873 88.968L742.394 89.8459L742.403 89.8503L742.873 88.968ZM749.497 95.016L748.646 95.5401L750.497 98.549V95.016H749.497ZM749.497 87.432V86.432H748.497V87.432H749.497ZM765.913 87.432H766.913V86.432H765.913V87.432ZM762.937 154.248L762.043 153.801L762.039 153.809L762.034 153.818L762.937 154.248ZM754.009 163.848L753.503 162.986L753.497 162.989L754.009 163.848ZM719.833 161.736L720.441 160.942L720.435 160.937L719.833 161.736ZM711.385 146.568V145.568H710.269L710.391 146.677L711.385 146.568ZM727.609 146.568L728.579 146.325L728.39 145.568H727.609V146.568ZM731.257 151.368L731.792 150.523L731.782 150.517L731.772 150.511L731.257 151.368ZM746.425 150.216L745.741 149.486L745.73 149.497L745.718 149.509L746.425 150.216ZM749.497 133.32H750.497V129.907L748.655 132.78L749.497 133.32ZM742.873 139.464L743.352 140.342L743.36 140.338L743.367 140.333L742.873 139.464ZM720.985 138.408L720.444 139.249L720.455 139.256L720.985 138.408ZM712.441 128.712L711.541 129.148L711.545 129.157L711.55 129.165L712.441 128.712ZM712.441 99.624L711.55 99.1713L711.544 99.1823L712.441 99.624ZM720.985 90.024L721.515 90.872L720.985 90.024ZM746.041 104.52L745.315 105.207L745.325 105.217L746.041 104.52ZM729.433 104.52L728.717 103.823L728.716 103.823L729.433 104.52ZM729.433 123.912L728.698 124.589L728.707 124.6L728.717 124.609L729.433 123.912ZM746.041 123.912L745.324 123.215L745.315 123.225L746.041 123.912ZM732.985 87.664C736.624 87.664 739.749 88.4031 742.394 89.8459L743.352 88.0901C740.365 86.4609 736.899 85.664 732.985 85.664V87.664ZM742.403 89.8503C745.144 91.3126 747.213 93.2119 748.646 95.5401L750.349 94.4919C748.71 91.8281 746.362 89.6954 743.344 88.0856L742.403 89.8503ZM750.497 95.016V87.432H748.497V95.016H750.497ZM749.497 88.432H765.913V86.432H749.497V88.432ZM764.913 87.432V140.904H766.913V87.432H764.913ZM764.913 140.904C764.913 145.694 763.95 149.986 762.043 153.801L763.832 154.695C765.893 150.574 766.913 145.97 766.913 140.904H764.913ZM762.034 153.818C760.205 157.661 757.371 160.714 753.503 162.986L754.516 164.71C758.711 162.246 761.83 158.899 763.84 154.678L762.034 153.818ZM753.497 162.989C749.722 165.242 744.952 166.4 739.129 166.4V168.4C745.211 168.4 750.36 167.19 754.522 164.707L753.497 162.989ZM739.129 166.4C731.351 166.4 725.151 164.551 720.441 160.942L719.225 162.53C724.371 166.473 731.035 168.4 739.129 168.4V166.4ZM720.435 160.937C715.738 157.399 713.055 152.598 712.379 146.459L710.391 146.677C711.124 153.338 714.073 158.649 719.232 162.535L720.435 160.937ZM711.385 147.568H727.609V145.568H711.385V147.568ZM726.639 146.811C727.22 149.133 728.611 150.946 730.743 152.225L731.772 150.511C730.064 149.486 729.023 148.099 728.579 146.325L726.639 146.811ZM730.722 152.213C732.837 153.552 735.401 154.192 738.361 154.192V152.192C735.689 152.192 733.518 151.616 731.792 150.523L730.722 152.213ZM738.361 154.192C741.959 154.192 744.923 153.133 747.132 150.923L745.718 149.509C743.96 151.267 741.547 152.192 738.361 152.192V154.192ZM747.109 150.946C749.444 148.756 750.497 145.324 750.497 140.904H748.497C748.497 145.06 747.502 147.836 745.741 149.486L747.109 150.946ZM750.497 140.904V133.32H748.497V140.904H750.497ZM748.655 132.78C747.151 135.127 745.068 137.067 742.379 138.595L743.367 140.333C746.311 138.661 748.644 136.505 750.339 133.86L748.655 132.78ZM742.394 138.586C739.749 140.029 736.624 140.768 732.985 140.768V142.768C736.899 142.768 740.365 141.971 743.352 140.342L742.394 138.586ZM732.985 140.768C728.748 140.768 724.933 139.696 721.515 137.56L720.455 139.256C724.205 141.6 728.391 142.768 732.985 142.768V140.768ZM721.526 137.567C718.105 135.368 715.372 132.276 713.333 128.259L711.55 129.165C713.734 133.468 716.697 136.84 720.444 139.249L721.526 137.567ZM713.341 128.276C711.369 124.209 710.369 119.499 710.369 114.12H708.369C708.369 119.749 709.417 124.767 711.541 129.148L713.341 128.276ZM710.369 114.12C710.369 108.741 711.37 104.065 713.338 100.066L711.544 99.1823C709.417 103.503 708.369 108.491 708.369 114.12H710.369ZM713.333 100.077C715.371 96.0615 718.101 93.0058 721.515 90.872L720.455 89.176C716.701 91.5222 713.735 94.8664 711.55 99.1713L713.333 100.077ZM721.515 90.872C724.933 88.7359 728.748 87.664 732.985 87.664V85.664C728.391 85.664 724.205 86.8321 720.455 89.176L721.515 90.872ZM750.497 114.216C750.497 109.925 749.285 106.42 746.758 103.823L745.325 105.217C747.406 107.356 748.497 110.315 748.497 114.216H750.497ZM746.768 103.833C744.339 101.265 741.324 99.968 737.785 99.968V101.968C740.775 101.968 743.264 103.039 745.315 105.207L746.768 103.833ZM737.785 99.968C734.248 99.968 731.206 101.264 728.717 103.823L730.15 105.217C732.268 103.04 734.795 101.968 737.785 101.968V99.968ZM728.716 103.823C726.249 106.361 725.073 109.838 725.073 114.12H727.073C727.073 110.21 728.138 107.287 730.15 105.217L728.716 103.823ZM725.073 114.12C725.073 118.404 726.249 121.931 728.698 124.589L730.169 123.235C728.137 121.029 727.073 118.028 727.073 114.12H725.073ZM728.717 124.609C731.206 127.168 734.248 128.464 737.785 128.464V126.464C734.795 126.464 732.268 125.392 730.15 123.215L728.717 124.609ZM737.785 128.464C741.324 128.464 744.339 127.167 746.768 124.599L745.315 123.225C743.264 125.393 740.775 126.464 737.785 126.464V128.464ZM746.758 124.609C749.285 122.012 750.497 118.507 750.497 114.216H748.497C748.497 118.117 747.406 121.076 745.325 123.215L746.758 124.609ZM825.706 93L824.965 93.6715L824.97 93.6776L824.976 93.6836L825.706 93ZM831.37 141V142H832.37V141H831.37ZM815.049 141H814.049V142H815.049V141ZM812.266 103.56L811.535 104.243L812.266 103.56ZM797.29 103.56L798.02 104.243L797.29 103.56ZM794.505 141V142H795.505V141H794.505ZM778.089 141H777.089V142H778.089V141ZM778.089 87.432V86.432H777.089V87.432H778.089ZM794.505 87.432H795.505V86.432H794.505V87.432ZM794.505 94.536H793.505V97.6984L795.324 95.1109L794.505 94.536ZM801.225 88.968L801.656 89.8705L801.665 89.8665L801.673 89.8624L801.225 88.968ZM810.729 87.856C816.761 87.856 821.469 89.8139 824.965 93.6715L826.446 92.3285C822.518 87.9941 817.242 85.856 810.729 85.856V87.856ZM824.976 93.6836C828.533 97.4818 830.37 102.779 830.37 109.704H832.37C832.37 102.421 830.43 96.5822 826.435 92.3164L824.976 93.6836ZM830.37 109.704V141H832.37V109.704H830.37ZM831.37 140H815.049V142H831.37V140ZM816.049 141V111.912H814.049V141H816.049ZM816.049 111.912C816.049 108.157 815.075 105.099 812.996 102.877L811.535 104.243C813.168 105.989 814.049 108.499 814.049 111.912H816.049ZM812.996 102.877C810.921 100.659 808.144 99.584 804.777 99.584V101.584C807.683 101.584 809.898 102.493 811.535 104.243L812.996 102.877ZM804.777 99.584C801.411 99.584 798.634 100.659 796.559 102.877L798.02 104.243C799.657 102.493 801.872 101.584 804.777 101.584V99.584ZM796.559 102.877C794.48 105.099 793.505 108.157 793.505 111.912H795.505C795.505 108.499 796.387 105.989 798.02 104.243L796.559 102.877ZM793.505 111.912V141H795.505V111.912H793.505ZM794.505 140H778.089V142H794.505V140ZM779.089 141V87.432H777.089V141H779.089ZM778.089 88.432H794.505V86.432H778.089V88.432ZM793.505 87.432V94.536H795.505V87.432H793.505ZM795.324 95.1109C796.881 92.8945 798.983 91.1464 801.656 89.8705L800.795 88.0655C797.836 89.4776 795.458 91.4415 793.687 93.9611L795.324 95.1109ZM801.673 89.8624C804.334 88.5317 807.346 87.856 810.729 87.856V85.856C807.073 85.856 803.749 86.5883 800.778 88.0736L801.673 89.8624ZM843.653 139.272L842.959 139.992L842.972 140.004L842.985 140.017L843.653 139.272ZM843.653 126.504L842.972 125.772L842.965 125.778L842.959 125.784L843.653 126.504ZM857.669 126.504L856.975 127.224L856.981 127.23L856.988 127.236L857.669 126.504ZM857.669 139.272L858.349 140.005L858.35 140.004L857.669 139.272ZM850.757 140.768C848.083 140.768 845.965 140.002 844.321 138.527L842.985 140.017C845.053 141.87 847.671 142.768 850.757 142.768V140.768ZM844.347 138.552C842.751 137.013 841.965 135.161 841.965 132.936H839.965C839.965 135.703 840.971 138.075 842.959 139.992L844.347 138.552ZM841.965 132.936C841.965 130.639 842.757 128.757 844.347 127.224L842.959 125.784C840.965 127.707 839.965 130.113 839.965 132.936H841.965ZM844.334 127.236C845.98 125.704 848.093 124.912 850.757 124.912V122.912C847.661 122.912 845.038 123.848 842.972 125.772L844.334 127.236ZM850.757 124.912C853.351 124.912 855.394 125.7 856.975 127.224L858.363 125.784C856.36 123.852 853.795 122.912 850.757 122.912V124.912ZM856.988 127.236C858.638 128.773 859.453 130.651 859.453 132.936H861.453C861.453 130.101 860.412 127.691 858.35 125.772L856.988 127.236ZM859.453 132.936C859.453 135.149 858.644 136.998 856.988 138.54L858.35 140.004C860.406 138.09 861.453 135.715 861.453 132.936H859.453ZM856.989 138.539C855.41 140.005 853.362 140.768 850.757 140.768V142.768C853.784 142.768 856.344 141.867 858.349 140.005L856.989 138.539Z" fill="white"/>
<path d="M997.144 9.39999L997.612 8.51646V8.51646L997.144 9.39999ZM1022.74 34.2L1021.87 34.6903L1021.88 34.6967L1021.88 34.7032L1022.74 34.2ZM1022.74 107.4L1021.88 106.902L1021.87 106.91L1022.74 107.4ZM996.944 132.2L996.48 131.314L996.475 131.316L996.944 132.2ZM905.744 141H904.744V142H905.744V141ZM905.744 0.599996V-0.400004H904.744V0.599996H905.744ZM939.944 29.8V28.8H938.944V29.8H939.944ZM939.944 111.4H938.944V112.4H939.944V111.4ZM958.344 1.6C973.01 1.6 985.777 4.5061 996.675 10.2835L997.612 8.51646C986.377 2.56055 973.277 -0.400004 958.344 -0.400004V1.6ZM996.675 10.2835C1007.58 16.0627 1015.97 24.1947 1021.87 34.6903L1023.62 33.7097C1017.52 22.872 1008.84 14.4707 997.612 8.51646L996.675 10.2835ZM1021.88 34.7032C1027.91 45.0637 1030.94 57.0853 1030.94 70.8H1032.94C1032.94 56.7813 1029.84 44.403 1023.61 33.6968L1021.88 34.7032ZM1030.94 70.8C1030.94 84.3792 1027.91 96.4036 1021.88 106.902L1023.61 107.898C1029.84 97.0631 1032.94 84.6875 1032.94 70.8H1030.94ZM1021.87 106.91C1015.97 117.402 1007.51 125.534 996.48 131.314L997.408 133.086C1008.77 127.133 1017.52 118.731 1023.62 107.89L1021.87 106.91ZM996.475 131.316C985.576 137.095 972.875 140 958.344 140V142C973.146 142 986.178 139.039 997.412 133.084L996.475 131.316ZM958.344 140H905.744V142H958.344V140ZM906.744 141V0.599996H904.744V141H906.744ZM905.744 1.6H958.344V-0.400004H905.744V1.6ZM956.144 112.4C969.262 112.4 979.609 108.812 987.044 101.514L985.643 100.086C978.679 106.922 968.892 110.4 956.144 110.4V112.4ZM987.044 101.514C994.486 94.2097 998.144 83.9223 998.144 70.8H996.144C996.144 83.5444 992.602 93.2569 985.643 100.086L987.044 101.514ZM998.144 70.8C998.144 57.6767 994.486 47.3277 987.051 39.8929L985.637 41.3071C992.602 48.2723 996.144 58.0566 996.144 70.8H998.144ZM987.051 39.8929C979.616 32.4581 969.267 28.8 956.144 28.8V30.8C968.887 30.8 978.671 34.3419 985.637 41.3071L987.051 39.8929ZM956.144 28.8H939.944V30.8H956.144V28.8ZM938.944 29.8V111.4H940.944V29.8H938.944ZM939.944 112.4H956.144V110.4H939.944V112.4Z" fill="white"/>
<path d="M1022.49 118.152V119.152H1023.38L1023.48 118.267L1022.49 118.152ZM985.333 118.152V117.152H984.253L984.336 118.229L985.333 118.152ZM988.501 125.832L987.806 126.551L987.819 126.564L987.832 126.575L988.501 125.832ZM1004.05 123.24V122.24H1003.41L1003.15 122.82L1004.05 123.24ZM1021.53 123.24L1022.49 123.487L1022.81 122.24H1021.53V123.24ZM1016.63 132.744L1015.86 132.1L1015.86 132.111L1016.63 132.744ZM1007.89 139.368L1008.31 140.278L1007.89 139.368ZM982.069 138.408L981.589 139.285L982.069 138.408ZM972.469 128.808L973.344 128.324L972.469 128.808ZM972.373 99.624L971.498 99.1395L971.493 99.1499L972.373 99.624ZM981.973 90.024L982.453 90.9014L981.973 90.024ZM1009.91 89.928L1009.43 90.808L1009.91 89.928ZM1019.32 99.24L1018.44 99.7257L1018.45 99.7361L1019.32 99.24ZM1005.97 109.032V110.032H1006.97V109.032H1005.97ZM1003.09 102.312L1003.75 101.556L1003.09 102.312ZM988.885 102.216L988.245 101.448L988.238 101.453L988.232 101.459L988.885 102.216ZM985.429 109.032L984.44 108.882L984.265 110.032H985.429V109.032ZM1021.77 113.352C1021.77 114.846 1021.68 116.408 1021.49 118.037L1023.48 118.267C1023.67 116.568 1023.77 114.93 1023.77 113.352H1021.77ZM1022.49 117.152H985.333V119.152H1022.49V117.152ZM984.336 118.229C984.605 121.727 985.728 124.544 987.806 126.551L989.196 125.113C987.562 123.536 986.573 121.233 986.33 118.075L984.336 118.229ZM987.832 126.575C989.948 128.48 992.528 129.424 995.509 129.424V127.424C992.986 127.424 990.894 126.64 989.17 125.089L987.832 126.575ZM995.509 129.424C997.698 129.424 999.623 128.961 1001.24 127.983C1002.85 127.002 1004.09 125.542 1004.96 123.66L1003.15 122.82C1002.42 124.394 1001.43 125.526 1000.2 126.273C998.963 127.023 997.416 127.424 995.509 127.424V129.424ZM1004.05 124.24H1021.53V122.24H1004.05V124.24ZM1020.56 122.993C1019.7 126.365 1018.14 129.398 1015.86 132.1L1017.39 133.388C1019.86 130.458 1021.56 127.155 1022.49 123.487L1020.56 122.993ZM1015.86 132.111C1013.65 134.801 1010.87 136.917 1007.48 138.458L1008.31 140.278C1011.96 138.619 1015 136.319 1017.4 133.377L1015.86 132.111ZM1007.48 138.458C1004.1 139.992 1000.31 140.768 996.085 140.768V142.768C1000.56 142.768 1004.64 141.944 1008.31 140.278L1007.48 138.458ZM996.085 140.768C990.984 140.768 986.48 139.681 982.549 137.531L981.589 139.285C985.85 141.615 990.69 142.768 996.085 142.768V140.768ZM982.549 137.531C978.622 135.383 975.558 132.321 973.344 128.324L971.594 129.292C973.988 133.615 977.324 136.953 981.589 139.285L982.549 137.531ZM973.344 128.324C971.135 124.335 970.013 119.644 970.013 114.216H968.013C968.013 119.924 969.195 124.961 971.594 129.292L973.344 128.324ZM970.013 114.216C970.013 108.784 971.105 104.088 973.253 100.098L971.493 99.1499C969.161 103.48 968.013 108.512 968.013 114.216H970.013ZM973.248 100.108C975.462 96.111 978.526 93.0487 982.453 90.9014L981.493 89.1466C977.228 91.4793 973.892 94.817 971.498 99.1395L973.248 100.108ZM982.453 90.9014C986.382 88.7524 990.917 87.664 996.085 87.664V85.664C990.629 85.664 985.756 86.8156 981.493 89.1466L982.453 90.9014ZM996.085 87.664C1001.13 87.664 1005.57 88.7206 1009.43 90.808L1010.38 89.048C1006.19 86.7834 1001.41 85.664 996.085 85.664V87.664ZM1009.43 90.808C1013.3 92.8927 1016.29 95.8593 1018.44 99.7256L1020.19 98.7544C1017.86 94.5567 1014.59 91.3153 1010.38 89.048L1009.43 90.808ZM1018.45 99.7361C1020.65 103.595 1021.77 108.122 1021.77 113.352H1023.77C1023.77 107.83 1022.59 102.949 1020.19 98.7439L1018.45 99.7361ZM1006.97 109.032C1006.97 105.961 1005.91 103.432 1003.75 101.556L1002.44 103.068C1004.11 104.52 1004.97 106.471 1004.97 109.032H1006.97ZM1003.75 101.556C1001.62 99.7137 998.979 98.816 995.893 98.816V100.816C998.567 100.816 1000.72 101.582 1002.44 103.068L1003.75 101.556ZM995.893 98.816C992.932 98.816 990.363 99.6826 988.245 101.448L989.525 102.984C991.247 101.549 993.35 100.816 995.893 100.816V98.816ZM988.232 101.459C986.159 103.246 984.916 105.755 984.44 108.882L986.418 109.182C986.838 106.421 987.899 104.386 989.538 102.973L988.232 101.459ZM985.429 110.032H1005.97V108.032H985.429V110.032ZM1055.83 125.64L1054.87 125.931L1055.83 129.078L1056.79 125.931L1055.83 125.64ZM1067.45 87.432V86.432H1066.7L1066.49 87.1411L1067.45 87.432ZM1084.92 87.432L1085.86 87.7664L1086.33 86.432H1084.92V87.432ZM1065.91 141V142H1066.62L1066.85 141.334L1065.91 141ZM1045.65 141L1044.71 141.334L1044.95 142H1045.65V141ZM1026.65 87.432V86.432H1025.23L1025.7 87.7664L1026.65 87.432ZM1044.21 87.432L1045.17 87.1411L1044.95 86.432H1044.21V87.432ZM1056.79 125.931L1068.4 87.7229L1066.49 87.1411L1054.87 125.349L1056.79 125.931ZM1067.45 88.432H1084.92V86.432H1067.45V88.432ZM1083.97 87.0976L1064.97 140.666L1066.85 141.334L1085.86 87.7664L1083.97 87.0976ZM1065.91 140H1045.65V142H1065.91V140ZM1046.6 140.666L1027.59 87.0976L1025.7 87.7664L1044.71 141.334L1046.6 140.666ZM1026.65 88.432H1044.21V86.432H1026.65V88.432ZM1043.26 87.7229L1054.87 125.931L1056.79 125.349L1045.17 87.1411L1043.26 87.7229ZM1142.33 118.152V119.152H1143.23L1143.33 118.267L1142.33 118.152ZM1105.18 118.152V117.152H1104.1L1104.19 118.229L1105.18 118.152ZM1108.35 125.832L1107.66 126.551L1107.67 126.564L1107.68 126.575L1108.35 125.832ZM1123.9 123.24V122.24H1123.26L1123 122.82L1123.9 123.24ZM1141.38 123.24L1142.34 123.487L1142.66 122.24H1141.38V123.24ZM1136.48 132.744L1135.71 132.1L1135.71 132.111L1136.48 132.744ZM1127.74 139.368L1128.16 140.278L1127.74 139.368ZM1101.92 138.408L1101.44 139.285L1101.92 138.408ZM1092.32 128.808L1093.19 128.324L1092.32 128.808ZM1092.22 99.624L1091.35 99.1395L1091.34 99.1499L1092.22 99.624ZM1101.82 90.024L1102.3 90.9014L1101.82 90.024ZM1129.76 89.928L1129.28 90.808H1129.28L1129.76 89.928ZM1139.17 99.24L1138.29 99.7257L1138.3 99.7361L1139.17 99.24ZM1125.82 109.032V110.032H1126.82V109.032H1125.82ZM1122.94 102.312L1123.6 101.556L1122.94 102.312ZM1108.74 102.216L1108.09 101.448L1108.09 101.453L1108.08 101.459L1108.74 102.216ZM1105.28 109.032L1104.29 108.882L1104.12 110.032H1105.28V109.032ZM1141.62 113.352C1141.62 114.846 1141.53 116.408 1141.34 118.037L1143.33 118.267C1143.52 116.568 1143.62 114.93 1143.62 113.352H1141.62ZM1142.33 117.152H1105.18V119.152H1142.33V117.152ZM1104.19 118.229C1104.46 121.727 1105.58 124.544 1107.66 126.551L1109.05 125.113C1107.41 123.536 1106.42 121.233 1106.18 118.075L1104.19 118.229ZM1107.68 126.575C1109.8 128.48 1112.38 129.424 1115.36 129.424V127.424C1112.84 127.424 1110.74 126.64 1109.02 125.089L1107.68 126.575ZM1115.36 129.424C1117.55 129.424 1119.47 128.961 1121.09 127.983C1122.7 127.002 1123.94 125.542 1124.81 123.66L1123 122.82C1122.27 124.394 1121.28 125.526 1120.05 126.273C1118.81 127.023 1117.27 127.424 1115.36 127.424V129.424ZM1123.9 124.24H1141.38V122.24H1123.9V124.24ZM1140.41 122.993C1139.55 126.365 1137.99 129.398 1135.71 132.1L1137.24 133.388C1139.71 130.458 1141.41 127.155 1142.34 123.487L1140.41 122.993ZM1135.71 132.111C1133.5 134.801 1130.72 136.917 1127.33 138.458L1128.16 140.278C1131.81 138.619 1134.85 136.319 1137.25 133.377L1135.71 132.111ZM1127.33 138.458C1123.95 139.992 1120.16 140.768 1115.93 140.768V142.768C1120.41 142.768 1124.49 141.944 1128.16 140.278L1127.33 138.458ZM1115.93 140.768C1110.83 140.768 1106.33 139.681 1102.4 137.531L1101.44 139.285C1105.7 141.615 1110.54 142.768 1115.93 142.768V140.768ZM1102.4 137.531C1098.47 135.383 1095.41 132.321 1093.19 128.324L1091.44 129.292C1093.84 133.615 1097.17 136.953 1101.44 139.285L1102.4 137.531ZM1093.19 128.324C1090.98 124.335 1089.86 119.644 1089.86 114.216H1087.86C1087.86 119.924 1089.05 124.961 1091.44 129.292L1093.19 128.324ZM1089.86 114.216C1089.86 108.784 1090.95 104.088 1093.1 100.098L1091.34 99.1499C1089.01 103.48 1087.86 108.512 1087.86 114.216H1089.86ZM1093.1 100.108C1095.31 96.111 1098.38 93.0487 1102.3 90.9014L1101.34 89.1466C1097.08 91.4793 1093.74 94.817 1091.35 99.1395L1093.1 100.108ZM1102.3 90.9014C1106.23 88.7524 1110.77 87.664 1115.93 87.664V85.664C1110.48 85.664 1105.61 86.8156 1101.34 89.1466L1102.3 90.9014ZM1115.93 87.664C1120.98 87.664 1125.42 88.7206 1129.28 90.808L1130.23 89.048C1126.04 86.7834 1121.26 85.664 1115.93 85.664V87.664ZM1129.28 90.808C1133.15 92.8927 1136.14 95.8593 1138.29 99.7256L1140.04 98.7544C1137.71 94.5567 1134.44 91.3153 1130.23 89.048L1129.28 90.808ZM1138.3 99.7361C1140.5 103.595 1141.62 108.122 1141.62 113.352H1143.62C1143.62 107.83 1142.44 102.949 1140.04 98.7439L1138.3 99.7361ZM1126.82 109.032C1126.82 105.961 1125.76 103.432 1123.6 101.556L1122.29 103.068C1123.96 104.52 1124.82 106.471 1124.82 109.032H1126.82ZM1123.6 101.556C1121.47 99.7137 1118.83 98.816 1115.74 98.816V100.816C1118.42 100.816 1120.57 101.582 1122.29 103.068L1123.6 101.556ZM1115.74 98.816C1112.78 98.816 1110.21 99.6826 1108.09 101.448L1109.38 102.984C1111.1 101.549 1113.2 100.816 1115.74 100.816V98.816ZM1108.08 101.459C1106.01 103.246 1104.77 105.755 1104.29 108.882L1106.27 109.182C1106.69 106.421 1107.75 104.386 1109.39 102.973L1108.08 101.459ZM1105.28 110.032H1125.82V108.032H1105.28V110.032ZM1168 69.96H1169V68.96H1168V69.96ZM1168 141V142H1169V141H1168ZM1151.58 141H1150.58V142H1151.58V141ZM1151.58 69.96V68.96H1150.58V69.96H1151.58ZM1167 69.96V141H1169V69.96H1167ZM1168 140H1151.58V142H1168V140ZM1152.58 141V69.96H1150.58V141H1152.58ZM1151.58 70.96H1168V68.96H1151.58V70.96ZM1190.37 138.408L1189.9 139.288L1189.9 139.291L1190.37 138.408ZM1180.48 128.808L1179.61 129.303L1179.62 129.313L1180.48 128.808ZM1180.58 99.72L1181.44 100.225L1181.45 100.219L1180.58 99.72ZM1190.56 90.024L1191.03 90.9075L1190.56 90.024ZM1218.98 90.024L1218.51 90.9075L1218.98 90.024ZM1228.96 99.72L1228.1 100.219L1228.1 100.225L1228.96 99.72ZM1228.87 128.808L1228.01 128.299L1228 128.303L1228.87 128.808ZM1218.79 138.408L1218.32 137.522L1218.32 137.525L1218.79 138.408ZM1212.55 124.104L1211.83 123.407L1211.83 123.412L1211.82 123.417L1212.55 124.104ZM1212.64 104.328L1211.91 105.004L1211.91 105.009L1211.92 105.015L1212.64 104.328ZM1196.8 104.328L1197.53 105.014L1197.54 105.004L1196.8 104.328ZM1196.71 124.104L1195.96 124.768L1195.97 124.774L1195.97 124.78L1196.71 124.104ZM1204.58 140.768C1199.48 140.768 1194.91 139.681 1190.84 137.525L1189.9 139.291C1194.29 141.615 1199.18 142.768 1204.58 142.768V140.768ZM1190.85 137.528C1186.85 135.376 1183.69 132.308 1181.35 128.303L1179.62 129.313C1182.14 133.628 1185.57 136.96 1189.9 139.288L1190.85 137.528ZM1181.35 128.313C1179.08 124.327 1177.93 119.639 1177.93 114.216H1175.93C1175.93 119.929 1177.15 124.969 1179.61 129.303L1181.35 128.313ZM1177.93 114.216C1177.93 108.864 1179.11 104.211 1181.44 100.225L1179.72 99.2153C1177.18 103.549 1175.93 108.56 1175.93 114.216H1177.93ZM1181.45 100.219C1183.79 96.1547 1186.98 93.0575 1191.03 90.9075L1190.1 89.1405C1185.7 91.4705 1182.24 94.8373 1179.71 99.221L1181.45 100.219ZM1191.03 90.9075C1195.1 88.7513 1199.67 87.664 1204.77 87.664V85.664C1199.38 85.664 1194.48 86.8167 1190.1 89.1405L1191.03 90.9075ZM1204.77 87.664C1209.87 87.664 1214.45 88.7513 1218.51 90.9075L1219.45 89.1405C1215.07 86.8167 1210.17 85.664 1204.77 85.664V87.664ZM1218.51 90.9075C1222.57 93.0575 1225.76 96.1547 1228.1 100.219L1229.83 99.221C1227.31 94.8373 1223.84 91.4705 1219.45 89.1405L1218.51 90.9075ZM1228.1 100.225C1230.43 104.211 1231.61 108.864 1231.61 114.216H1233.61C1233.61 108.56 1232.36 103.549 1229.83 99.2153L1228.1 100.225ZM1231.61 114.216C1231.61 119.563 1230.4 124.247 1228.01 128.299L1229.73 129.317C1232.33 124.921 1233.61 119.877 1233.61 114.216H1231.61ZM1228 128.303C1225.67 132.3 1222.45 135.368 1218.32 137.522L1219.25 139.294C1223.7 136.968 1227.2 133.636 1229.73 129.313L1228 128.303ZM1218.32 137.525C1214.25 139.681 1209.68 140.768 1204.58 140.768V142.768C1209.97 142.768 1214.87 141.615 1219.26 139.291L1218.32 137.525ZM1204.58 128.56C1207.99 128.56 1210.91 127.292 1213.27 124.791L1211.82 123.417C1209.83 125.524 1207.44 126.56 1204.58 126.56V128.56ZM1213.26 124.801C1215.74 122.255 1216.91 118.675 1216.91 114.216H1214.91C1214.91 118.333 1213.84 121.345 1211.83 123.407L1213.26 124.801ZM1216.91 114.216C1216.91 109.765 1215.78 106.188 1213.37 103.641L1211.92 105.015C1213.86 107.076 1214.91 110.091 1214.91 114.216H1216.91ZM1213.38 103.652C1211.08 101.141 1208.19 99.872 1204.77 99.872V101.872C1207.63 101.872 1209.98 102.907 1211.91 105.004L1213.38 103.652ZM1204.77 99.872C1201.3 99.872 1198.37 101.136 1196.07 103.652L1197.54 105.004C1199.46 102.912 1201.84 101.872 1204.77 101.872V99.872ZM1196.08 103.642C1193.73 106.132 1192.64 109.715 1192.64 114.216H1194.64C1194.64 110.013 1195.66 107.004 1197.53 105.014L1196.08 103.642ZM1192.64 114.216C1192.64 118.653 1193.7 122.221 1195.96 124.768L1197.46 123.44C1195.62 121.379 1194.64 118.355 1194.64 114.216H1192.64ZM1195.97 124.78C1198.27 127.291 1201.16 128.56 1204.58 128.56V126.56C1201.72 126.56 1199.37 125.525 1197.44 123.428L1195.97 124.78ZM1258.04 95.016H1257.04V98.429L1258.88 95.5557L1258.04 95.016ZM1264.66 88.968L1264.18 88.0901L1264.66 88.968ZM1286.55 90.024L1286.02 90.872L1286.55 90.024ZM1295 99.624L1294.1 100.066L1294.11 100.077L1295 99.624ZM1295 128.712L1294.1 128.265L1294.1 128.27L1295 128.712ZM1286.55 138.408L1287.08 139.256L1287.09 139.249L1286.55 138.408ZM1264.66 139.464L1264.18 140.342L1264.19 140.346L1264.66 139.464ZM1258.04 133.512L1258.87 132.962L1257.04 130.173V133.512H1258.04ZM1258.04 166.536V167.536H1259.04V166.536H1258.04ZM1241.62 166.536H1240.62V167.536H1241.62V166.536ZM1241.62 87.432V86.432H1240.62V87.432H1241.62ZM1258.04 87.432H1259.04V86.432H1258.04V87.432ZM1278 104.52L1277.28 105.207L1277.29 105.217L1277.3 105.227L1278 104.52ZM1261.3 104.52L1260.58 103.823L1260.57 103.833L1261.3 104.52ZM1261.3 123.912L1260.57 124.599L1260.58 124.609L1261.3 123.912ZM1278 123.912L1278.72 124.609L1278.73 124.6L1278 123.912ZM1258.88 95.5557C1260.38 93.2126 1262.46 91.3082 1265.14 89.8459L1264.18 88.0901C1261.23 89.6998 1258.89 91.8274 1257.19 94.4763L1258.88 95.5557ZM1265.14 89.8459C1267.78 88.4031 1270.91 87.664 1274.55 87.664V85.664C1270.64 85.664 1267.17 86.4609 1264.18 88.0901L1265.14 89.8459ZM1274.55 87.664C1278.79 87.664 1282.6 88.7359 1286.02 90.872L1287.08 89.176C1283.33 86.8321 1279.14 85.664 1274.55 85.664V87.664ZM1286.02 90.872C1289.43 93.0039 1292.13 96.0559 1294.1 100.066L1295.89 99.1823C1293.77 94.8721 1290.84 91.5241 1287.08 89.176L1286.02 90.872ZM1294.11 100.077C1296.13 104.073 1297.16 108.745 1297.16 114.12H1299.16C1299.16 108.487 1298.08 103.495 1295.89 99.1713L1294.11 100.077ZM1297.16 114.12C1297.16 119.494 1296.13 124.201 1294.1 128.265L1295.89 129.159C1298.08 124.775 1299.16 119.754 1299.16 114.12H1297.16ZM1294.1 128.27C1292.12 132.282 1289.43 135.37 1286.01 137.567L1287.09 139.249C1290.84 136.838 1293.77 133.462 1295.89 129.154L1294.1 128.27ZM1286.02 137.56C1282.6 139.696 1278.79 140.768 1274.55 140.768V142.768C1279.14 142.768 1283.33 141.6 1287.08 139.256L1286.02 137.56ZM1274.55 140.768C1270.98 140.768 1267.85 140.03 1265.13 138.582L1264.19 140.346C1267.23 141.97 1270.7 142.768 1274.55 142.768V140.768ZM1265.14 138.586C1262.45 137.12 1260.37 135.244 1258.87 132.962L1257.2 134.062C1258.9 136.644 1261.24 138.736 1264.18 140.342L1265.14 138.586ZM1257.04 133.512V166.536H1259.04V133.512H1257.04ZM1258.04 165.536H1241.62V167.536H1258.04V165.536ZM1242.62 166.536V87.432H1240.62V166.536H1242.62ZM1241.62 88.432H1258.04V86.432H1241.62V88.432ZM1257.04 87.432V95.016H1259.04V87.432H1257.04ZM1282.46 114.12C1282.46 109.831 1281.25 106.35 1278.71 103.813L1277.3 105.227C1279.37 107.298 1280.46 110.217 1280.46 114.12H1282.46ZM1278.73 103.833C1276.3 101.26 1273.25 99.968 1269.65 99.968V101.968C1272.71 101.968 1275.23 103.044 1277.28 105.207L1278.73 103.833ZM1269.65 99.968C1266.12 99.968 1263.07 101.264 1260.58 103.823L1262.02 105.217C1264.14 103.04 1266.66 101.968 1269.65 101.968V99.968ZM1260.57 103.833C1258.12 106.431 1256.94 109.933 1256.94 114.216H1258.94C1258.94 110.307 1260 107.345 1262.03 105.207L1260.57 103.833ZM1256.94 114.216C1256.94 118.499 1258.12 122.001 1260.57 124.599L1262.03 123.225C1260 121.087 1258.94 118.125 1258.94 114.216H1256.94ZM1260.58 124.609C1263.07 127.168 1266.12 128.464 1269.65 128.464V126.464C1266.66 126.464 1264.14 125.392 1262.02 123.215L1260.58 124.609ZM1269.65 128.464C1273.19 128.464 1276.23 127.168 1278.72 124.609L1277.29 123.215C1275.17 125.392 1272.64 126.464 1269.65 126.464V128.464ZM1278.73 124.6C1281.25 121.943 1282.46 118.412 1282.46 114.12H1280.46C1280.46 118.02 1279.37 121.017 1277.28 123.224L1278.73 124.6ZM1357.29 118.152V119.152H1358.18L1358.28 118.267L1357.29 118.152ZM1320.13 118.152V117.152H1319.05L1319.14 118.229L1320.13 118.152ZM1323.3 125.832L1322.61 126.551L1322.62 126.564L1322.63 126.575L1323.3 125.832ZM1338.85 123.24V122.24H1338.21L1337.95 122.82L1338.85 123.24ZM1356.33 123.24L1357.29 123.487L1357.61 122.24H1356.33V123.24ZM1351.43 132.744L1350.66 132.1L1350.66 132.111L1351.43 132.744ZM1342.69 139.368L1343.11 140.278L1342.69 139.368ZM1316.87 138.408L1316.39 139.285L1316.87 138.408ZM1307.27 128.808L1308.14 128.324L1307.27 128.808ZM1307.17 99.624L1306.3 99.1395L1306.29 99.1499L1307.17 99.624ZM1316.77 90.024L1317.25 90.9014L1316.77 90.024ZM1344.71 89.928L1344.23 90.808L1344.71 89.928ZM1354.12 99.24L1353.24 99.7257L1353.25 99.7361L1354.12 99.24ZM1340.77 109.032V110.032H1341.77V109.032H1340.77ZM1337.89 102.312L1338.55 101.556L1337.89 102.312ZM1323.68 102.216L1323.04 101.448L1323.04 101.453L1323.03 101.459L1323.68 102.216ZM1320.23 109.032L1319.24 108.882L1319.07 110.032H1320.23V109.032ZM1356.57 113.352C1356.57 114.846 1356.48 116.408 1356.29 118.037L1358.28 118.267C1358.47 116.568 1358.57 114.93 1358.57 113.352H1356.57ZM1357.29 117.152H1320.13V119.152H1357.29V117.152ZM1319.14 118.229C1319.41 121.727 1320.53 124.544 1322.61 126.551L1324 125.113C1322.36 123.536 1321.37 121.233 1321.13 118.075L1319.14 118.229ZM1322.63 126.575C1324.75 128.48 1327.33 129.424 1330.31 129.424V127.424C1327.79 127.424 1325.69 126.64 1323.97 125.089L1322.63 126.575ZM1330.31 129.424C1332.5 129.424 1334.42 128.961 1336.04 127.983C1337.65 127.002 1338.89 125.542 1339.76 123.66L1337.95 122.82C1337.22 124.394 1336.23 125.526 1335 126.273C1333.76 127.023 1332.22 127.424 1330.31 127.424V129.424ZM1338.85 124.24H1356.33V122.24H1338.85V124.24ZM1355.36 122.993C1354.5 126.365 1352.94 129.398 1350.66 132.1L1352.19 133.388C1354.66 130.458 1356.36 127.155 1357.29 123.487L1355.36 122.993ZM1350.66 132.111C1348.45 134.801 1345.67 136.917 1342.28 138.458L1343.11 140.278C1346.76 138.619 1349.8 136.319 1352.2 133.377L1350.66 132.111ZM1342.28 138.458C1338.9 139.992 1335.11 140.768 1330.89 140.768V142.768C1335.36 142.768 1339.44 141.944 1343.11 140.278L1342.28 138.458ZM1330.89 140.768C1325.78 140.768 1321.28 139.681 1317.35 137.531L1316.39 139.285C1320.65 141.615 1325.49 142.768 1330.89 142.768V140.768ZM1317.35 137.531C1313.42 135.383 1310.36 132.321 1308.14 128.324L1306.39 129.292C1308.79 133.615 1312.12 136.953 1316.39 139.285L1317.35 137.531ZM1308.14 128.324C1305.93 124.335 1304.81 119.644 1304.81 114.216H1302.81C1302.81 119.924 1304 124.961 1306.39 129.292L1308.14 128.324ZM1304.81 114.216C1304.81 108.784 1305.9 104.088 1308.05 100.098L1306.29 99.1499C1303.96 103.48 1302.81 108.512 1302.81 114.216H1304.81ZM1308.05 100.108C1310.26 96.111 1313.33 93.0487 1317.25 90.9014L1316.29 89.1466C1312.03 91.4793 1308.69 94.817 1306.3 99.1395L1308.05 100.108ZM1317.25 90.9014C1321.18 88.7524 1325.72 87.664 1330.89 87.664V85.664C1325.43 85.664 1320.56 86.8156 1316.29 89.1466L1317.25 90.9014ZM1330.89 87.664C1335.93 87.664 1340.37 88.7206 1344.23 90.808L1345.18 89.048C1340.99 86.7834 1336.21 85.664 1330.89 85.664V87.664ZM1344.23 90.808C1348.1 92.8927 1351.09 95.8593 1353.24 99.7256L1354.99 98.7544C1352.66 94.5567 1349.39 91.3153 1345.18 89.048L1344.23 90.808ZM1353.25 99.7361C1355.45 103.595 1356.57 108.122 1356.57 113.352H1358.57C1358.57 107.83 1357.39 102.949 1354.99 98.7439L1353.25 99.7361ZM1341.77 109.032C1341.77 105.961 1340.71 103.432 1338.55 101.556L1337.24 103.068C1338.91 104.52 1339.77 106.471 1339.77 109.032H1341.77ZM1338.55 101.556C1336.42 99.7137 1333.78 98.816 1330.69 98.816V100.816C1333.37 100.816 1335.52 101.582 1337.24 103.068L1338.55 101.556ZM1330.69 98.816C1327.73 98.816 1325.16 99.6826 1323.04 101.448L1324.33 102.984C1326.05 101.549 1328.15 100.816 1330.69 100.816V98.816ZM1323.03 101.459C1320.96 103.246 1319.72 105.755 1319.24 108.882L1321.22 109.182C1321.64 106.421 1322.7 104.386 1324.34 102.973L1323.03 101.459ZM1320.23 110.032H1340.77V108.032H1320.23V110.032ZM1367.11 139.272L1366.42 139.992L1366.43 140.004L1366.44 140.017L1367.11 139.272ZM1367.11 126.504L1366.43 125.772L1366.42 125.778L1366.42 125.784L1367.11 126.504ZM1381.13 126.504L1380.43 127.224L1380.44 127.23L1380.44 127.236L1381.13 126.504ZM1381.13 139.272L1381.81 140.005L1381.81 140.004L1381.13 139.272ZM1374.21 140.768C1371.54 140.768 1369.42 140.002 1367.78 138.527L1366.44 140.017C1368.51 141.87 1371.13 142.768 1374.21 142.768V140.768ZM1367.8 138.552C1366.21 137.013 1365.42 135.161 1365.42 132.936H1363.42C1363.42 135.703 1364.43 138.075 1366.42 139.992L1367.8 138.552ZM1365.42 132.936C1365.42 130.639 1366.21 128.757 1367.8 127.224L1366.42 125.784C1364.42 127.707 1363.42 130.113 1363.42 132.936H1365.42ZM1367.79 127.236C1369.44 125.704 1371.55 124.912 1374.21 124.912V122.912C1371.12 122.912 1368.49 123.848 1366.43 125.772L1367.79 127.236ZM1374.21 124.912C1376.81 124.912 1378.85 125.7 1380.43 127.224L1381.82 125.784C1379.82 123.852 1377.25 122.912 1374.21 122.912V124.912ZM1380.44 127.236C1382.09 128.773 1382.91 130.651 1382.91 132.936H1384.91C1384.91 130.101 1383.87 127.691 1381.81 125.772L1380.44 127.236ZM1382.91 132.936C1382.91 135.149 1382.1 136.998 1380.44 138.54L1381.81 140.004C1383.86 138.09 1384.91 135.715 1384.91 132.936H1382.91ZM1380.44 138.539C1378.87 140.005 1376.82 140.768 1374.21 140.768V142.768C1377.24 142.768 1379.8 141.867 1381.81 140.005L1380.44 138.539Z" fill="white"/>
<path d="M73.304 79.368L72.6099 80.0878L72.6229 80.1004L72.6365 80.1126L73.304 79.368ZM73.304 66.696L73.9844 67.4288L73.9854 67.4279L73.304 66.696ZM87.32 66.696L86.6259 67.4158L86.6389 67.4284L86.6525 67.4406L87.32 66.696ZM87.32 79.368L88.0005 80.1008L88.0014 80.0999L87.32 79.368ZM88.568 87.432H89.568V86.432H88.568V87.432ZM88.568 141V142H89.568V141H88.568ZM72.152 141H71.152V142H72.152V141ZM72.152 87.432V86.432H71.152V87.432H72.152ZM80.408 80.864C77.7336 80.864 75.6158 80.0976 73.9715 78.6234L72.6365 80.1126C74.7042 81.9664 77.3224 82.864 80.408 82.864V80.864ZM73.9981 78.6482C72.4022 77.1092 71.616 75.2573 71.616 73.032H69.616C69.616 75.7987 70.6218 78.1708 72.6099 80.0878L73.9981 78.6482ZM71.616 73.032C71.616 70.7354 72.4067 68.8938 73.9844 67.4288L72.6235 65.9632C70.6173 67.8262 69.616 70.2086 69.616 73.032H71.616ZM73.9854 67.4279C75.631 65.8958 77.7439 65.104 80.408 65.104V63.104C77.3121 63.104 74.689 64.0402 72.6226 65.9641L73.9854 67.4279ZM80.408 65.104C83.0019 65.104 85.0452 65.8916 86.6259 67.4158L88.0141 65.9762C86.0108 64.0444 83.4461 63.104 80.408 63.104V65.104ZM86.6525 67.4406C88.2905 68.9091 89.104 70.7474 89.104 73.032H91.104C91.104 70.1966 90.0615 67.8109 87.9875 65.9514L86.6525 67.4406ZM89.104 73.032C89.104 75.2454 88.2951 77.0938 86.6386 78.6361L88.0014 80.0999C90.0569 78.1862 91.104 75.8106 91.104 73.032H89.104ZM86.6395 78.6352C85.0605 80.1014 83.0126 80.864 80.408 80.864V82.864C83.4354 82.864 85.9955 81.9625 88.0004 80.1008L86.6395 78.6352ZM87.568 87.432V141H89.568V87.432H87.568ZM88.568 140H72.152V142H88.568V140ZM73.152 141V87.432H71.152V141H73.152ZM72.152 88.432H88.568V86.432H72.152V88.432ZM110.076 139.368L110.478 138.452L110.076 139.368ZM101.436 132.84L100.636 133.44L100.643 133.449L101.436 132.84ZM97.8845 123.432V122.432H96.8077L96.8872 123.506L97.8845 123.432ZM114.108 123.432L115.103 123.329L115.01 122.432H114.108V123.432ZM116.7 127.944L117.3 127.144L116.7 127.944ZM127.068 128.52L127.645 129.337L127.654 129.331L127.068 128.52ZM126.396 121.992L125.964 122.894L125.979 122.901L125.994 122.907L126.396 121.992ZM118.62 119.496L118.863 118.526L118.855 118.524L118.848 118.522L118.62 119.496ZM109.02 116.712L108.649 117.64L108.659 117.645L108.669 117.648L109.02 116.712ZM102.396 112.008L101.636 112.657L101.64 112.663L101.645 112.668L102.396 112.008ZM102.108 94.92L101.28 94.3605L101.276 94.3653L102.108 94.92ZM109.596 88.872L109.192 87.9574L109.185 87.9604L109.596 88.872ZM137.244 91.656L136.59 92.4117L136.596 92.417L137.244 91.656ZM143.965 104.904V105.904H145.075L144.959 104.8L143.965 104.904ZM128.796 104.904L127.806 105.041L127.925 105.904H128.796V104.904ZM126.3 100.488L125.671 101.265L125.68 101.272L125.689 101.279L126.3 100.488ZM116.508 100.008L117.075 100.832L117.092 100.82L117.108 100.808L116.508 100.008ZM117.372 106.44L116.94 107.342L116.947 107.345L116.953 107.348L117.372 106.44ZM125.052 108.744L125.302 107.776L125.286 107.771L125.269 107.768L125.052 108.744ZM134.748 111.816L134.369 112.741L134.379 112.745L134.39 112.749L134.748 111.816ZM141.276 116.616L140.506 117.254L140.516 117.266L140.527 117.278L141.276 116.616ZM144.253 125.448H145.253V125.439L145.252 125.431L144.253 125.448ZM141.564 133.896L140.752 133.313L140.749 133.317L141.564 133.896ZM133.98 139.656L133.591 138.735L133.584 138.738L133.98 139.656ZM122.556 140.768C117.999 140.768 113.98 139.988 110.478 138.452L109.675 140.284C113.469 141.948 117.77 142.768 122.556 142.768V140.768ZM110.478 138.452C106.961 136.91 104.225 134.831 102.23 132.231L100.643 133.449C102.872 136.353 105.896 138.626 109.675 140.284L110.478 138.452ZM102.236 132.24C100.237 129.574 99.1234 126.62 98.8818 123.358L96.8872 123.506C97.1576 127.156 98.4117 130.474 100.636 133.44L102.236 132.24ZM97.8845 124.432H114.108V122.432H97.8845V124.432ZM113.114 123.535C113.335 125.677 114.349 127.43 116.1 128.744L117.3 127.144C115.98 126.154 115.266 124.899 115.103 123.329L113.114 123.535ZM116.1 128.744C117.837 130.047 119.946 130.672 122.364 130.672V128.672C120.303 128.672 118.636 128.145 117.3 127.144L116.1 128.744ZM122.364 130.672C124.515 130.672 126.32 130.272 127.645 129.337L126.492 127.703C125.641 128.304 124.31 128.672 122.364 128.672V130.672ZM127.654 129.331C129.033 128.335 129.796 126.992 129.796 125.352H127.796C127.796 126.272 127.408 127.041 126.483 127.709L127.654 129.331ZM129.796 125.352C129.796 124.401 129.545 123.528 129.01 122.779C128.481 122.038 127.72 121.482 126.799 121.077L125.994 122.907C126.673 123.206 127.112 123.562 127.383 123.941C127.648 124.312 127.796 124.767 127.796 125.352H129.796ZM126.829 121.09C125.133 120.276 122.458 119.425 118.863 118.526L118.378 120.466C121.951 121.359 124.46 122.172 125.964 122.894L126.829 121.09ZM118.848 118.522C115.033 117.632 111.878 116.715 109.372 115.776L108.669 117.648C111.283 118.629 114.528 119.568 118.393 120.47L118.848 118.522ZM109.392 115.784C106.981 114.819 104.902 113.344 103.148 111.348L101.645 112.668C103.603 114.896 105.94 116.557 108.649 117.64L109.392 115.784ZM103.157 111.359C101.494 109.409 100.612 106.749 100.612 103.272H98.6125C98.6125 107.091 99.5867 110.255 101.636 112.657L103.157 111.359ZM100.612 103.272C100.612 100.392 101.389 97.8023 102.941 95.4747L101.276 94.3653C99.5002 97.0297 98.6125 100.008 98.6125 103.272H100.612ZM102.937 95.4795C104.546 93.0965 106.885 91.1916 110.008 89.7836L109.185 87.9604C105.78 89.4964 103.127 91.6235 101.28 94.3605L102.937 95.4795ZM110.001 89.7865C113.174 88.383 116.966 87.664 121.404 87.664V85.664C116.755 85.664 112.675 86.4169 109.192 87.9575L110.001 89.7865ZM121.404 87.664C127.963 87.664 132.983 89.2861 136.59 92.4117L137.899 90.9003C133.826 87.3699 128.286 85.664 121.404 85.664V87.664ZM136.596 92.417C140.288 95.5647 142.418 99.7373 142.97 105.008L144.959 104.8C144.359 99.0627 142.009 94.4033 137.893 90.895L136.596 92.417ZM143.965 103.904H128.796V105.904H143.965V103.904ZM129.787 104.767C129.497 102.667 128.539 100.954 126.912 99.6967L125.689 101.279C126.878 102.198 127.584 103.429 127.806 105.041L129.787 104.767ZM126.93 99.7108C125.361 98.4407 123.325 97.856 120.924 97.856V99.856C123.004 99.856 124.552 100.359 125.671 101.265L126.93 99.7108ZM120.924 97.856C118.891 97.856 117.173 98.2597 115.908 99.208L117.108 100.808C117.892 100.22 119.118 99.856 120.924 99.856V97.856ZM115.942 99.184C114.637 100.081 113.972 101.387 113.972 102.984H115.972C115.972 102.021 116.332 101.343 117.075 100.832L115.942 99.184ZM113.972 102.984C113.972 103.936 114.224 104.811 114.751 105.57C115.273 106.322 116.024 106.902 116.94 107.342L117.805 105.538C117.121 105.21 116.672 104.83 116.394 104.43C116.121 104.037 115.972 103.568 115.972 102.984H113.972ZM116.953 107.348C118.717 108.162 121.362 108.948 124.836 109.72L125.269 107.768C121.831 107.004 119.356 106.254 117.792 105.532L116.953 107.348ZM124.803 109.712C128.747 110.73 131.931 111.741 134.369 112.741L135.128 110.891C132.574 109.843 129.294 108.806 125.302 107.776L124.803 109.712ZM134.39 112.749C136.712 113.642 138.75 115.134 140.506 117.254L142.047 115.978C140.091 113.618 137.777 111.91 135.107 110.883L134.39 112.749ZM140.527 117.278C142.25 119.23 143.192 121.923 143.253 125.465L145.252 125.431C145.185 121.549 144.143 118.354 142.026 115.954L140.527 117.278ZM143.253 125.448C143.253 128.379 142.419 130.99 140.752 133.313L142.377 134.479C144.294 131.81 145.253 128.789 145.253 125.448H143.253ZM140.749 133.317C139.149 135.568 136.784 137.384 133.591 138.735L134.37 140.577C137.833 139.112 140.524 137.088 142.38 134.475L140.749 133.317ZM133.584 138.738C130.47 140.081 126.802 140.768 122.556 140.768V142.768C127.015 142.768 130.963 142.047 134.377 140.574L133.584 138.738ZM154.692 99.624L153.817 99.1395L153.811 99.1499L154.692 99.624ZM164.196 90.024L163.716 89.1466L163.71 89.1498L164.196 90.024ZM195.012 91.944L194.394 92.7303L194.399 92.7345L195.012 91.944ZM203.94 106.824V107.824H205.184L204.916 106.609L203.94 106.824ZM186.468 106.824L185.527 107.162L185.765 107.824H186.468V106.824ZM170.724 104.232L171.513 104.846L171.521 104.835L170.724 104.232ZM170.724 124.296L169.926 124.899L169.934 124.91L170.724 124.296ZM186.468 121.608V120.608H185.765L185.527 121.27L186.468 121.608ZM203.94 121.608L204.915 121.827L205.189 120.608H203.94V121.608ZM195.012 136.392L194.392 135.607L195.012 136.392ZM164.196 138.408L163.71 139.282L163.716 139.285L164.196 138.408ZM154.692 128.808L153.811 129.282L153.817 129.292L154.692 128.808ZM152.332 114.216C152.332 108.784 153.424 104.088 155.572 100.098L153.811 99.1499C151.48 103.48 150.332 108.512 150.332 114.216H152.332ZM155.567 100.108C157.783 96.1069 160.818 93.0443 164.681 90.8982L163.71 89.1498C159.509 91.4837 156.209 94.8211 153.817 99.1395L155.567 100.108ZM164.676 90.9014C168.607 88.7514 173.11 87.664 178.212 87.664V85.664C172.817 85.664 167.977 86.8166 163.716 89.1466L164.676 90.9014ZM178.212 87.664C184.75 87.664 190.12 89.3725 194.394 92.7303L195.63 91.1577C190.943 87.4755 185.114 85.664 178.212 85.664V87.664ZM194.399 92.7345C198.733 96.0913 201.598 100.834 202.963 107.039L204.916 106.609C203.466 100.014 200.379 94.8367 195.624 91.1534L194.399 92.7345ZM203.94 105.824H186.468V107.824H203.94V105.824ZM187.409 106.486C186.621 104.294 185.436 102.572 183.812 101.404C182.185 100.235 180.202 99.68 177.924 99.68V101.68C179.87 101.68 181.422 102.149 182.644 103.028C183.868 103.908 184.842 105.258 185.527 107.162L187.409 106.486ZM177.924 99.68C174.607 99.68 171.91 101.007 169.926 103.629L171.521 104.835C173.121 102.721 175.224 101.68 177.924 101.68V99.68ZM169.934 103.618C167.953 106.165 167.036 109.746 167.036 114.216H169.036C169.036 109.982 169.91 106.907 171.513 104.846L169.934 103.618ZM167.036 114.216C167.036 118.688 167.954 122.293 169.926 124.899L171.521 123.693C169.909 121.563 169.036 118.448 169.036 114.216H167.036ZM169.934 124.91C171.923 127.466 174.618 128.752 177.924 128.752V126.752C175.213 126.752 173.109 125.734 171.513 123.682L169.934 124.91ZM177.924 128.752C180.202 128.752 182.185 128.197 183.812 127.028C185.436 125.86 186.621 124.138 187.409 121.946L185.527 121.27C184.842 123.174 183.868 124.524 182.644 125.404C181.422 126.283 179.87 126.752 177.924 126.752V128.752ZM186.468 122.608H203.94V120.608H186.468V122.608ZM202.964 121.389C201.6 127.463 198.736 132.181 194.392 135.607L195.631 137.177C200.375 133.435 203.463 128.297 204.915 121.827L202.964 121.389ZM194.392 135.607C190.051 139.031 184.678 140.768 178.212 140.768V142.768C185.057 142.768 190.885 140.921 195.631 137.177L194.392 135.607ZM178.212 140.768C173.11 140.768 168.607 139.681 164.676 137.531L163.716 139.285C167.977 141.615 172.817 142.768 178.212 142.768V140.768ZM164.681 137.534C160.818 135.388 157.783 132.325 155.567 128.324L153.817 129.292C156.209 133.611 159.509 136.948 163.71 139.282L164.681 137.534ZM155.572 128.334C153.424 124.344 152.332 119.648 152.332 114.216H150.332C150.332 119.92 151.48 124.952 153.811 129.282L155.572 128.334ZM223.197 138.408L222.723 139.288L222.728 139.291L223.197 138.408ZM213.309 128.808L212.44 129.303L212.445 129.313L213.309 128.808ZM213.405 99.72L214.268 100.225L214.271 100.219L213.405 99.72ZM223.389 90.024L223.857 90.9075L223.389 90.024ZM251.805 90.024L251.336 90.9075L251.805 90.024ZM261.789 99.72L260.922 100.219L260.925 100.225L261.789 99.72ZM261.693 128.808L260.832 128.299L260.829 128.303L261.693 128.808ZM251.613 138.408L251.15 137.522L251.144 137.525L251.613 138.408ZM245.373 124.104L244.656 123.407L244.651 123.412L244.646 123.417L245.373 124.104ZM245.469 104.328L244.732 105.004L244.737 105.009L244.742 105.015L245.469 104.328ZM229.629 104.328L230.356 105.014L230.366 105.004L229.629 104.328ZM229.533 124.104L228.785 124.768L228.79 124.774L228.796 124.78L229.533 124.104ZM237.405 140.768C232.304 140.768 227.731 139.681 223.665 137.525L222.728 139.291C227.11 141.615 232.01 142.768 237.405 142.768V140.768ZM223.671 137.528C219.676 135.376 216.513 132.308 214.172 128.303L212.445 129.313C214.968 133.628 218.397 136.96 222.723 139.288L223.671 137.528ZM214.178 128.313C211.909 124.327 210.757 119.639 210.757 114.216H208.757C208.757 119.929 209.973 124.969 212.44 129.303L214.178 128.313ZM210.757 114.216C210.757 108.864 211.938 104.211 214.268 100.225L212.541 99.2153C210.008 103.549 208.757 108.56 208.757 114.216H210.757ZM214.271 100.219C216.611 96.1547 219.803 93.0575 223.857 90.9075L222.92 89.1405C218.527 91.4705 215.062 94.8373 212.538 99.221L214.271 100.219ZM223.857 90.9075C227.923 88.7513 232.496 87.664 237.597 87.664V85.664C232.202 85.664 227.302 86.8167 222.92 89.1405L223.857 90.9075ZM237.597 87.664C242.698 87.664 247.27 88.7513 251.336 90.9075L252.273 89.1405C247.891 86.8167 242.992 85.664 237.597 85.664V87.664ZM251.336 90.9075C255.391 93.0575 258.582 96.1547 260.922 100.219L262.655 99.221C260.131 94.8373 256.667 91.4705 252.273 89.1405L251.336 90.9075ZM260.925 100.225C263.256 104.211 264.437 108.864 264.437 114.216H266.437C266.437 108.56 265.186 103.549 262.652 99.2153L260.925 100.225ZM264.437 114.216C264.437 119.563 263.226 124.247 260.832 128.299L262.554 129.317C265.151 124.921 266.437 119.877 266.437 114.216H264.437ZM260.829 128.303C258.493 132.3 255.272 135.368 251.15 137.522L252.076 139.294C256.53 136.968 260.029 133.636 262.556 129.313L260.829 128.303ZM251.144 137.525C247.078 139.681 242.506 140.768 237.405 140.768V142.768C242.8 142.768 247.699 141.615 252.081 139.291L251.144 137.525ZM237.405 128.56C240.819 128.56 243.737 127.292 246.1 124.791L244.646 123.417C242.656 125.524 240.262 126.56 237.405 126.56V128.56ZM246.09 124.801C248.565 122.255 249.733 118.675 249.733 114.216H247.733C247.733 118.333 246.66 121.345 244.656 123.407L246.09 124.801ZM249.733 114.216C249.733 109.765 248.601 106.188 246.196 103.641L244.742 105.015C246.688 107.076 247.733 110.091 247.733 114.216H249.733ZM246.206 103.652C243.904 101.141 241.012 99.872 237.597 99.872V101.872C240.454 101.872 242.81 102.907 244.732 105.004L246.206 103.652ZM237.597 99.872C234.124 99.872 231.198 101.136 228.892 103.652L230.366 105.004C232.283 102.912 234.669 101.872 237.597 101.872V99.872ZM228.901 103.642C226.553 106.132 225.461 109.715 225.461 114.216H227.461C227.461 110.013 228.48 107.004 230.356 105.014L228.901 103.642ZM225.461 114.216C225.461 118.653 226.521 122.221 228.785 124.768L230.28 123.44C228.449 121.379 227.461 118.355 227.461 114.216H225.461ZM228.796 124.78C231.098 127.291 233.99 128.56 237.405 128.56V126.56C234.548 126.56 232.192 125.525 230.27 123.428L228.796 124.78ZM298.542 125.64L297.585 125.931L298.542 129.078L299.499 125.931L298.542 125.64ZM310.158 87.432V86.432H309.417L309.201 87.1411L310.158 87.432ZM327.63 87.432L328.572 87.7664L329.046 86.432H327.63V87.432ZM308.622 141V142H309.328L309.564 141.334L308.622 141ZM288.366 141L287.423 141.334L287.66 142H288.366V141ZM269.358 87.432V86.432H267.942L268.415 87.7664L269.358 87.432ZM286.926 87.432L287.883 87.1411L287.667 86.432H286.926V87.432ZM299.499 125.931L311.115 87.7229L309.201 87.1411L297.585 125.349L299.499 125.931ZM310.158 88.432H327.63V86.432H310.158V88.432ZM326.687 87.0976L307.679 140.666L309.564 141.334L328.572 87.7664L326.687 87.0976ZM308.622 140H288.366V142H308.622V140ZM289.308 140.666L270.3 87.0976L268.415 87.7664L287.423 141.334L289.308 140.666ZM269.358 88.432H286.926V86.432H269.358V88.432ZM285.969 87.7229L297.585 125.931L299.499 125.349L287.883 87.1411L285.969 87.7229ZM385.048 118.152V119.152H385.939L386.041 118.267L385.048 118.152ZM347.896 118.152V117.152H346.816L346.898 118.229L347.896 118.152ZM351.064 125.832L350.369 126.551L350.382 126.564L350.395 126.575L351.064 125.832ZM366.616 123.24V122.24H365.977L365.708 122.82L366.616 123.24ZM384.088 123.24L385.057 123.487L385.374 122.24H384.088V123.24ZM379.192 132.744L378.426 132.1L378.418 132.111L379.192 132.744ZM370.456 139.368L370.869 140.278L370.456 139.368ZM344.632 138.408L344.152 139.285L344.632 138.408ZM335.032 128.808L335.906 128.324L335.032 128.808ZM334.936 99.624L334.061 99.1395L334.055 99.1499L334.936 99.624ZM344.536 90.024L345.015 90.9014L344.536 90.024ZM372.472 89.928L371.997 90.808L372.472 89.928ZM381.88 99.24L381.005 99.7257L381.011 99.7361L381.88 99.24ZM368.536 109.032V110.032H369.536V109.032H368.536ZM365.656 102.312L366.31 101.556L365.656 102.312ZM351.448 102.216L350.807 101.448L350.801 101.453L350.795 101.459L351.448 102.216ZM347.992 109.032L347.003 108.882L346.828 110.032H347.992V109.032ZM384.336 113.352C384.336 114.846 384.242 116.408 384.054 118.037L386.041 118.267C386.237 116.568 386.336 114.93 386.336 113.352H384.336ZM385.048 117.152H347.896V119.152H385.048V117.152ZM346.898 118.229C347.168 121.727 348.29 124.544 350.369 126.551L351.758 125.113C350.125 123.536 349.135 121.233 348.893 118.075L346.898 118.229ZM350.395 126.575C352.511 128.48 355.09 129.424 358.072 129.424V127.424C355.549 127.424 353.456 126.64 351.732 125.089L350.395 126.575ZM358.072 129.424C360.261 129.424 362.186 128.961 363.798 127.983C365.416 127.002 366.652 125.542 367.523 123.66L365.708 122.82C364.979 124.394 363.991 125.526 362.761 126.273C361.525 127.023 359.978 127.424 358.072 127.424V129.424ZM366.616 124.24H384.088V122.24H366.616V124.24ZM383.118 122.993C382.26 126.365 380.699 129.398 378.426 132.1L379.957 133.388C382.421 130.458 384.123 127.155 385.057 123.487L383.118 122.993ZM378.418 132.111C376.217 134.801 373.431 136.917 370.042 138.458L370.869 140.278C374.52 138.619 377.558 136.319 379.965 133.377L378.418 132.111ZM370.042 138.458C366.667 139.992 362.875 140.768 358.648 140.768V142.768C363.124 142.768 367.204 141.944 370.869 140.278L370.042 138.458ZM358.648 140.768C353.546 140.768 349.043 139.681 345.111 137.531L344.152 139.285C348.412 141.615 353.253 142.768 358.648 142.768V140.768ZM345.111 137.531C341.185 135.383 338.12 132.321 335.906 128.324L334.157 129.292C336.551 133.615 339.886 136.953 344.152 139.285L345.111 137.531ZM335.906 128.324C333.697 124.335 332.576 119.644 332.576 114.216H330.576C330.576 119.924 331.758 124.961 334.157 129.292L335.906 128.324ZM332.576 114.216C332.576 108.784 333.667 104.088 335.816 100.098L334.055 99.1499C331.724 103.48 330.576 108.512 330.576 114.216H332.576ZM335.81 100.108C338.024 96.111 341.089 93.0487 345.015 90.9014L344.056 89.1466C339.79 91.4793 336.455 94.817 334.061 99.1395L335.81 100.108ZM345.015 90.9014C348.945 88.7524 353.48 87.664 358.648 87.664V85.664C353.191 85.664 348.318 86.8156 344.056 89.1466L345.015 90.9014ZM358.648 87.664C363.688 87.664 368.129 88.7206 371.997 90.808L372.946 89.048C368.75 86.7834 363.975 85.664 358.648 85.664V87.664ZM371.997 90.808C375.859 92.8927 378.857 95.8593 381.005 99.7256L382.754 98.7544C380.422 94.5567 377.148 91.3153 372.946 89.048L371.997 90.808ZM381.011 99.7361C383.216 103.595 384.336 108.122 384.336 113.352H386.336C386.336 107.83 385.151 102.949 382.748 98.7439L381.011 99.7361ZM369.536 109.032C369.536 105.961 368.475 103.432 366.31 101.556L365.001 103.068C366.676 104.52 367.536 106.471 367.536 109.032H369.536ZM366.31 101.556C364.184 99.7137 361.542 98.816 358.456 98.816V100.816C361.129 100.816 363.287 101.582 365.001 103.068L366.31 101.556ZM358.456 98.816C355.495 98.816 352.926 99.6826 350.807 101.448L352.088 102.984C353.809 101.549 355.912 100.816 358.456 100.816V98.816ZM350.795 101.459C348.721 103.246 347.479 105.755 347.003 108.882L348.98 109.182C349.4 106.421 350.462 104.386 352.1 102.973L350.795 101.459ZM347.992 110.032H368.536V108.032H347.992V110.032ZM410.712 96.36H409.712V99.7239L411.549 96.9063L410.712 96.36ZM417.912 89.448L418.412 90.3139L418.419 90.3097L418.426 90.3055L417.912 89.448ZM427.512 86.856H428.512V85.856H427.512V86.856ZM427.512 104.232V105.232H428.512V104.232H427.512ZM413.784 106.92L414.429 107.684L414.435 107.678L414.442 107.673L413.784 106.92ZM410.712 141V142H411.712V141H410.712ZM394.296 141H393.296V142H394.296V141ZM394.296 87.432V86.432H393.296V87.432H394.296ZM410.712 87.432H411.712V86.432H410.712V87.432ZM411.549 96.9063C413.389 94.0861 415.676 91.8948 418.412 90.3139L417.411 88.5821C414.388 90.3292 411.875 92.7459 409.874 95.8137L411.549 96.9063ZM418.426 90.3055C421.143 88.6753 424.164 87.856 427.512 87.856V85.856C423.82 85.856 420.44 86.7647 417.397 88.5905L418.426 90.3055ZM426.512 86.856V104.232H428.512V86.856H426.512ZM427.512 103.232H423V105.232H427.512V103.232ZM423 103.232C418.78 103.232 415.428 104.152 413.125 106.167L414.442 107.673C416.235 106.104 419.028 105.232 423 105.232V103.232ZM413.139 106.156C410.754 108.168 409.712 111.612 409.712 116.136H411.712C411.712 111.828 412.717 109.128 414.429 107.684L413.139 106.156ZM409.712 116.136V141H411.712V116.136H409.712ZM410.712 140H394.296V142H410.712V140ZM395.296 141V87.432H393.296V141H395.296ZM394.296 88.432H410.712V86.432H394.296V88.432ZM409.712 87.432V96.36H411.712V87.432H409.712ZM436.234 139.272L435.54 139.992L435.553 140.004L435.567 140.017L436.234 139.272ZM436.234 126.504L435.553 125.772L435.546 125.778L435.54 125.784L436.234 126.504ZM450.25 126.504L449.556 127.224L449.562 127.23L449.569 127.236L450.25 126.504ZM450.25 139.272L450.931 140.005L450.932 140.004L450.25 139.272ZM443.338 140.768C440.664 140.768 438.546 140.002 436.902 138.527L435.567 140.017C437.634 141.87 440.253 142.768 443.338 142.768V140.768ZM436.928 138.552C435.332 137.013 434.546 135.161 434.546 132.936H432.546C432.546 135.703 433.552 138.075 435.54 139.992L436.928 138.552ZM434.546 132.936C434.546 130.639 435.338 128.757 436.928 127.224L435.54 125.784C433.547 127.707 432.546 130.113 432.546 132.936H434.546ZM436.916 127.236C438.561 125.704 440.674 124.912 443.338 124.912V122.912C440.242 122.912 437.619 123.848 435.553 125.772L436.916 127.236ZM443.338 124.912C445.932 124.912 447.975 125.7 449.556 127.224L450.944 125.784C448.941 123.852 446.376 122.912 443.338 122.912V124.912ZM449.569 127.236C451.219 128.773 452.034 130.651 452.034 132.936H454.034C454.034 130.101 452.993 127.691 450.932 125.772L449.569 127.236ZM452.034 132.936C452.034 135.149 451.225 136.998 449.569 138.54L450.932 140.004C452.987 138.09 454.034 135.715 454.034 132.936H452.034ZM449.57 138.539C447.991 140.005 445.943 140.768 443.338 140.768V142.768C446.366 142.768 448.926 141.867 450.931 140.005L449.57 138.539Z" fill="white"/>
<path d="M92.1438 9.39999L92.6121 8.51646V8.51646L92.1438 9.39999ZM117.744 34.2L116.872 34.6903L116.876 34.6967L116.88 34.7032L117.744 34.2ZM117.744 107.4L116.877 106.902L116.872 106.91L117.744 107.4ZM91.9437 132.2L91.4797 131.314L91.4754 131.316L91.9437 132.2ZM0.74375 141H-0.25625V142H0.74375V141ZM0.74375 0.599996V-0.400004H-0.25625V0.599996H0.74375ZM34.9438 29.8V28.8H33.9438V29.8H34.9438ZM34.9438 111.4H33.9438V112.4H34.9438V111.4ZM53.3438 1.6C68.0101 1.6 80.7771 4.5061 91.6754 10.2835L92.6121 8.51646C81.3771 2.56055 68.2774 -0.400004 53.3438 -0.400004V1.6ZM91.6754 10.2835C102.577 16.0627 110.968 24.1947 116.872 34.6903L118.615 33.7097C112.519 22.872 103.844 14.4707 92.6121 8.51646L91.6754 10.2835ZM116.88 34.7032C122.912 45.0637 125.944 57.0853 125.944 70.8H127.944C127.944 56.7813 124.842 44.403 118.608 33.6968L116.88 34.7032ZM125.944 70.8C125.944 84.3792 122.913 96.4036 116.877 106.902L118.611 107.898C124.841 97.0631 127.944 84.6875 127.944 70.8H125.944ZM116.872 106.91C110.97 117.402 102.515 125.534 91.4797 131.314L92.4078 133.086C103.773 127.133 112.517 118.731 118.615 107.89L116.872 106.91ZM91.4754 131.316C80.5758 137.095 67.8751 140 53.3438 140V142C68.1458 142 81.1784 139.039 92.4121 133.084L91.4754 131.316ZM53.3438 140H0.74375V142H53.3438V140ZM1.74375 141V0.599996H-0.25625V141H1.74375ZM0.74375 1.6H53.3438V-0.400004H0.74375V1.6ZM51.1438 112.4C64.2619 112.4 74.6086 108.812 82.0442 101.514L80.6433 100.086C73.6789 106.922 63.8923 110.4 51.1438 110.4V112.4ZM82.0442 101.514C89.486 94.2097 93.1438 83.9223 93.1438 70.8H91.1438C91.1438 83.5444 87.6015 93.2569 80.6433 100.086L82.0442 101.514ZM93.1438 70.8C93.1438 57.6767 89.4857 47.3277 82.0509 39.8929L80.6367 41.3071C87.6019 48.2723 91.1438 58.0566 91.1438 70.8H93.1438ZM82.0509 39.8929C74.6161 32.4581 64.267 28.8 51.1438 28.8V30.8C63.8871 30.8 73.6714 34.3419 80.6367 41.3071L82.0509 39.8929ZM51.1438 28.8H34.9438V30.8H51.1438V28.8ZM33.9438 29.8V111.4H35.9438V29.8H33.9438ZM34.9438 112.4H51.1438V110.4H34.9438V112.4Z" fill="white"/>
</svg>
