<svg width="316" height="290" viewBox="0 0 316 290" fill="none" xmlns="http://www.w3.org/2000/svg">
<path fill-rule="evenodd" clip-rule="evenodd" d="M1 265.321C7.58879 241.902 21.8348 221.527 38.0191 189.314C43.3072 178.788 46.6169 161.036 45.8955 149.144C45.8955 149.144 38.9799 143.178 36.8376 140.283C32.859 134.908 28.2008 127.43 26.2045 121.183C23.9248 114.049 22.8381 103.836 23.4477 96.3722C24.0172 89.4009 25.9866 79.8211 29.7488 73.9245C33.85 67.4966 42.3045 60.9462 49.046 57.3841C55.8624 53.7824 66.1698 51.278 73.8566 50.6891C81.3238 50.1171 91.4172 51.5695 98.6673 53.4459C106.973 55.5954 118.046 59.8176 124.659 65.2605C140.615 79.2022 140.447 97.3797 141.594 116.851C142.734 121.475 146.655 126.793 149.47 130.635C150.705 132.321 153.263 133.884 154.196 135.754C154.785 136.936 155.489 138.866 154.984 140.086C154.269 141.812 151.492 142.716 149.864 143.631C148.849 144.201 146.889 144.191 146.319 145.206C144.978 147.596 148.542 151.472 146.91 153.673C146.054 154.828 142.775 155.051 142.775 155.051C142.775 155.051 146.829 160.192 145.138 160.171C144.194 160.16 141.332 164.942 141.987 166.472C141.987 166.472 143.926 171.074 143.957 173.167C143.99 175.488 143.588 178.969 141.987 180.65C140.364 182.354 136.777 182.398 134.505 183.013C130.88 183.992 125.034 183.417 121.115 184.391C118.517 185.036 115.108 186.309 112.845 187.738C111.219 188.765 108.911 190.318 108.119 192.07C105.638 197.563 108.441 206.171 107.725 212.155C107.337 215.4 104.963 219.545 105.362 222.788C105.846 226.721 108.987 231.364 111.27 234.603C113.532 237.813 117.915 240.955 120.327 244.055C123.75 248.452 126.97 255.247 130.173 259.807C131.382 261.529 134.505 265.321 134.505 265.321H1H1Z" fill="white" stroke="black"/>
<path fill-rule="evenodd" clip-rule="evenodd" d="M315 265.321C308.411 241.902 294.165 221.527 277.981 189.314C272.693 178.788 269.383 161.036 270.105 149.144C270.105 149.144 277.02 143.178 279.162 140.283C283.141 134.908 287.799 127.43 289.796 121.183C292.075 114.049 293.162 103.836 292.552 96.3722C291.983 89.4009 290.013 79.8211 286.251 73.9245C282.15 67.4966 273.696 60.9462 266.954 57.3841C260.138 53.7824 249.83 51.278 242.143 50.6891C234.676 50.1171 224.583 51.5695 217.333 53.4459C209.027 55.5954 197.954 59.8176 191.341 65.2605C175.385 79.2022 175.553 97.3797 174.406 116.851C173.266 121.475 169.345 126.793 166.53 130.635C165.295 132.321 162.737 133.884 161.804 135.754C161.215 136.936 160.511 138.866 161.016 140.086C161.731 141.812 164.508 142.716 166.136 143.631C167.151 144.201 169.111 144.191 169.681 145.206C171.022 147.596 167.458 151.472 169.09 153.673C169.946 154.828 173.225 155.051 173.225 155.051C173.225 155.051 169.171 160.192 170.862 160.171C171.806 160.16 174.668 164.942 174.013 166.472C174.013 166.472 172.074 171.074 172.043 173.167C172.01 175.488 172.412 178.969 174.013 180.65C175.636 182.354 179.223 182.398 181.495 183.013C185.12 183.992 190.966 183.417 194.885 184.391C197.483 185.036 200.892 186.309 203.155 187.738C204.781 188.765 207.089 190.318 207.881 192.07C210.362 197.563 207.559 206.171 208.275 212.155C208.663 215.4 211.037 219.545 210.638 222.788C210.154 226.721 207.013 231.364 204.73 234.603C202.468 237.813 198.085 240.955 195.673 244.055C192.25 248.452 189.03 255.247 185.827 259.807C184.618 261.529 181.495 265.321 181.495 265.321H315H315Z" fill="#00D1FF" stroke="black"/>
<path d="M154.985 194.624L155.386 195.159L155.786 194.624C158.887 190.48 162.908 187.116 167.53 184.8C172.152 182.483 177.249 181.277 182.416 181.277C191.244 181.277 199.711 184.792 205.954 191.05C212.197 197.308 215.704 205.795 215.704 214.646C215.704 231.717 205.853 249.317 186.249 266.997C177.35 275.016 167.661 282.107 157.331 288.161C156.742 288.498 156.073 288.669 155.394 288.658L155.394 288.658L155.381 288.658C154.7 288.665 154.03 288.492 153.437 288.158C153.436 288.158 153.435 288.158 153.435 288.158L153.401 288.138C151.986 287.328 137.512 279.043 123.331 265.964C108.991 252.739 95.0674 234.717 95.0674 214.646C95.0674 207.642 97.2658 200.816 101.351 195.134C105.436 189.453 111.201 185.204 117.829 182.989C124.457 180.775 131.612 180.706 138.28 182.795C144.949 184.883 150.793 189.021 154.985 194.624Z" fill="#6D778C" stroke="white"/>
<path d="M70.3955 37.3078L93.2536 34.015L78.9729 15.8658L70.3955 37.3078ZM238.036 37.3078L229.952 15.675L215.259 33.4924L238.036 37.3078ZM85.6595 27.8357C116.506 6.9703 170.399 -10.7427 222.977 27.4771L225.329 24.2416C170.85 -15.3603 115.012 3.1517 83.4183 24.5226L85.6595 27.8357Z" fill="url(#paint0_linear_251_557)"/>
<defs>
<linearGradient id="paint0_linear_251_557" x1="59.4794" y1="37.3078" x2="262.207" y2="37.3078" gradientUnits="userSpaceOnUse">
<stop stop-color="#00D1FF"/>
<stop offset="0.534375" stop-color="white"/>
</linearGradient>
</defs>
</svg>
