<svg width="371" height="325" viewBox="0 0 371 325" fill="none" xmlns="http://www.w3.org/2000/svg">
<path d="M251.8 77.2779C239.01 82.9075 229.8 76.1646 231.277 62.2719C232.121 54.2246 226.322 46.9923 218.275 46.1483L202.972 44.5337C195.928 43.6698 189.591 48.8207 188.727 55.8646L188.541 57.5493C187.065 71.442 176.607 76.0452 165.294 67.782L163.926 66.7816C158.289 62.5991 150.211 63.7931 146.091 69.5711L136.946 81.9471C132.133 88.4517 133.582 97.683 140.086 102.496C151.368 110.688 150.121 122.034 137.331 127.664C129.983 130.898 126.55 139.579 129.816 146.998L135.29 159.435C138.524 166.783 147.205 170.216 154.624 166.95C167.414 161.321 176.624 168.064 175.077 181.987C174.233 190.035 180.031 197.267 188.078 198.111L203.381 199.726C210.425 200.59 216.762 195.439 217.626 188.395L217.812 186.71C219.288 172.817 229.746 168.214 241.059 176.477L242.427 177.478C248.205 181.598 256.283 180.404 260.404 174.626L269.549 162.25C274.361 155.745 272.913 146.514 266.439 141.772C255.126 133.509 256.374 122.163 269.163 116.533C276.512 113.299 279.945 104.618 276.679 97.1987L271.205 84.7626C267.9 77.4452 259.219 74.0122 251.8 77.2779ZM213.32 145.078C200.672 150.646 185.815 144.87 180.248 132.222C174.68 119.574 180.456 104.717 193.104 99.1499C205.752 93.5825 220.609 99.3578 226.176 112.006C231.744 124.654 225.968 139.511 213.32 145.078Z" fill="#00D1FF"/>
<g clip-path="url(#clip0_250_437)">
<g opacity="0.4">
<path d="M49.3264 252.925L44.1986 242.542C41.1685 236.406 43.6776 228.856 49.8722 225.797C60.5507 220.523 61.1871 210.816 51.2441 204.204C45.554 200.41 43.9741 192.604 47.8277 186.885L55.1498 176.003C58.4412 170.929 65.2746 169.609 70.3492 172.9L71.5517 173.701C81.4357 180.341 90.1673 176.029 90.9617 164.115L91.0571 162.674C91.5282 156.644 96.7301 152.02 102.76 152.491L115.851 153.291C122.735 153.708 127.973 159.707 127.527 166.532C126.733 178.446 134.828 183.841 145.506 178.568C151.642 175.538 159.192 178.047 162.251 184.242L167.379 194.625C170.409 200.761 167.9 208.311 161.706 211.37C151.027 216.644 150.391 226.351 160.334 232.962C166.053 236.816 167.604 244.563 163.75 250.282L156.428 261.163C153.137 266.238 146.303 267.558 141.229 264.266L140.026 263.466C130.142 256.826 121.41 261.138 120.616 273.052L120.521 274.493C120.05 280.523 114.848 285.147 108.818 284.676L95.7266 283.876C88.8429 283.459 83.6051 277.46 84.0507 270.635C84.8452 258.721 76.75 253.325 66.0716 258.599C59.8769 261.658 52.3565 259.061 49.3264 252.925Z" fill="white"/>
<path d="M49.3264 252.925L44.1986 242.542C41.1685 236.406 43.6776 228.856 49.8722 225.797C60.5507 220.523 61.1871 210.816 51.2441 204.204C45.554 200.41 43.9741 192.604 47.8277 186.885L55.1498 176.003C58.4412 170.929 65.2746 169.609 70.3492 172.9L71.5517 173.701C81.4357 180.341 90.1673 176.029 90.9617 164.115L91.0571 162.674C91.5282 156.644 96.7301 152.02 102.76 152.491L115.851 153.291C122.735 153.708 127.973 159.707 127.527 166.532C126.733 178.446 134.828 183.841 145.506 178.568C151.642 175.538 159.192 178.047 162.251 184.242L167.379 194.625C170.409 200.761 167.9 208.311 161.706 211.37C151.027 216.644 150.391 226.351 160.334 232.962C166.053 236.816 167.604 244.563 163.75 250.282L156.428 261.163C153.137 266.238 146.303 267.558 141.229 264.266L140.026 263.466C130.142 256.826 121.41 261.138 120.616 273.052L120.521 274.493C120.05 280.523 114.848 285.147 108.818 284.676L95.7266 283.876C88.8429 283.459 83.6051 277.46 84.0507 270.635C84.8452 258.721 76.75 253.325 66.0716 258.599C59.8769 261.658 52.3565 259.061 49.3264 252.925Z" stroke="white"/>
</g>
<path d="M123.14 210.015C127.881 219.614 123.942 231.238 114.343 235.979C104.744 240.719 93.119 236.781 88.3785 227.181C83.638 217.582 87.5767 205.958 97.1758 201.217C106.775 196.477 118.399 200.415 123.14 210.015Z" fill="white" stroke="white" stroke-width="4"/>
</g>
<rect x="246.014" y="261.633" width="24.9974" height="54.1611" rx="11" fill="white"/>
<rect x="296.009" y="211.638" width="24.9974" height="104.156" rx="11" fill="white"/>
<rect x="346.003" y="161.643" width="24.9974" height="154.151" rx="11" fill="white"/>
<path d="M345.538 112.489L308.842 145.073L355.409 160.56L345.538 112.489ZM228.888 239.319C246.583 231.997 267.84 218.974 287.487 203.36C307.123 187.754 325.442 169.329 337.055 151.061L329.881 146.501C318.955 163.689 301.411 181.436 282.198 196.705C262.997 211.966 242.42 224.52 225.638 231.465L228.888 239.319Z" fill="#00D1FF"/>
<defs>
<clipPath id="clip0_250_437">
<rect width="157.918" height="157.918" fill="white" transform="translate(0 182.764) rotate(-26.2824)"/>
</clipPath>
</defs>
</svg>
