<svg width="19" height="19" viewBox="0 0 19 19" fill="none" xmlns="http://www.w3.org/2000/svg">
<path fill-rule="evenodd" clip-rule="evenodd" d="M14.9933 0.429443H4.01936C1.92223 0.429443 0.222168 2.12951 0.222168 4.22664V15.2005C0.222168 17.2977 1.92223 18.9977 4.01936 18.9977H14.9933C17.0904 18.9977 18.7905 17.2977 18.7905 15.2005V4.22664C18.7905 2.12951 17.0904 0.429443 14.9933 0.429443ZM17.3665 15.2005C17.3665 16.5112 16.304 17.5738 14.9933 17.5738H4.01936C2.70865 17.5738 1.64612 16.5112 1.64612 15.2005V4.22664C1.64612 2.91593 2.70865 1.85339 4.01936 1.85339H14.9933C16.304 1.85339 17.3665 2.91593 17.3665 4.22664V15.2005ZM9.40189 8.01434C9.42003 8.63793 9.03792 9.20346 8.45259 9.4193C9.21509 9.62534 9.7271 10.3398 9.67718 11.128C9.67718 13.0266 7.59822 13.0836 7.29444 13.0836H4.03835V6.34357H7.24698C9.32594 6.34357 9.40189 7.50172 9.40189 8.01434ZM6.91472 7.52071H5.51925V9.09654H7.02864C7.25769 9.12405 7.48743 9.05101 7.65854 8.89628C7.82965 8.74155 7.92537 8.52029 7.92098 8.28964C7.92098 7.49424 7.1385 7.51497 6.94389 7.52012L6.94385 7.52012C6.93176 7.52045 6.92194 7.52071 6.91472 7.52071ZM7.10458 11.9634H5.51925V10.0648H7.12357C7.39593 10.0291 7.67041 10.1131 7.87612 10.2952C8.08184 10.4772 8.19861 10.7394 8.19627 11.0141C8.19627 11.9349 7.24697 11.9349 7.10458 11.9349V11.9634ZM13.987 6.97011H11.4714V7.58716H13.987V6.97011ZM11.0983 8.80783C11.5429 8.35601 12.1575 8.1127 12.7909 8.13775C14.4996 8.13775 15.0312 9.58068 14.9933 10.8053H11.7561C11.7148 11.1131 11.8153 11.4231 12.0293 11.6482C12.2433 11.8733 12.5478 11.9892 12.8573 11.9634C13.2631 11.9654 13.6333 11.7322 13.8066 11.3654H14.8604C14.6259 12.3203 13.733 12.9639 12.7529 12.8842C12.1216 12.9134 11.5083 12.6701 11.0687 12.216C10.6292 11.762 10.4059 11.141 10.4556 10.511C10.4203 9.87809 10.6537 9.25966 11.0983 8.80783ZM11.7941 9.73257C11.7587 9.83004 11.7394 9.93266 11.7372 10.0363H13.7402C13.7253 9.7715 13.6254 9.51851 13.4554 9.31488C13.267 9.14281 13.0172 9.05385 12.7624 9.06806C12.5927 9.06088 12.4237 9.09338 12.2688 9.16299C12.1437 9.22376 12.0335 9.31126 11.946 9.4193C11.8749 9.51247 11.8232 9.61901 11.7941 9.73257Z" fill="current"/>
</svg>
