<svg width="56" height="53" viewBox="0 0 56 53" fill="none" xmlns="http://www.w3.org/2000/svg">
<path d="M56 18.5007C55.7214 8.18884 48.199 0 38.7264 0C35.6617 0 30.9254 2.42632 28.9751 6.3691C28.6965 7.27897 27.5821 7.27897 27.3035 6.3691C25.0746 2.72961 20.6169 0.30329 17.2736 0.30329C8.0796 0.30329 0.278607 8.49213 0 18.5007V18.804V19.1073C0 24.2632 1.95025 29.1159 5.29353 32.7554C5.29353 32.7554 5.29353 32.7554 5.29353 33.0587C5.57214 33.3619 18.9453 46.1001 25.0746 51.8627C26.7463 53.3791 29.2537 53.3791 30.9254 51.8627C37.0547 46.1001 50.1493 33.3619 50.7065 33.0587C50.7065 33.0587 50.7065 33.0587 50.7065 32.7554C54.0498 29.4192 56 24.5665 56 19.1073V18.5007Z" fill="#FF4141"/>
</svg>
