<svg width="18" height="17" viewBox="0 0 18 17" fill="none" xmlns="http://www.w3.org/2000/svg">
<mask id="mask0_303_245" style="mask-type:alpha" maskUnits="userSpaceOnUse" x="6" y="5" width="12" height="12">
<path fill-rule="evenodd" clip-rule="evenodd" d="M6.63086 5.1875H17.0292V16.5167H6.63086V5.1875Z" fill="current"/>
</mask>
<g mask="url(#mask0_303_245)">
<path fill-rule="evenodd" clip-rule="evenodd" d="M17.0239 16.0334C17.0262 14.2192 17.0354 12.4048 17.0207 10.5906C17.0142 9.79596 16.9857 8.99922 16.8186 8.21712C16.5449 6.93483 15.9288 5.9337 14.705 5.46687C13.8885 5.15545 13.0349 5.1354 12.1823 5.25612C11.4661 5.35754 10.8064 5.63034 10.2053 6.13742C10.2053 5.95293 10.2047 5.83058 10.2054 5.70838C10.2073 5.43395 10.0796 5.3099 9.81646 5.31116C8.88145 5.31552 7.94645 5.31441 7.01137 5.3119C6.75398 5.31116 6.63051 5.41745 6.63086 5.70676C6.6358 9.18822 6.63396 12.6697 6.63411 16.1511C6.63411 16.2847 6.61654 16.4267 6.77105 16.4924C6.78735 16.514 10.163 16.522 10.1629 16.5001C10.3843 16.4006 10.3162 16.1907 10.3166 16.0198C10.3197 14.3027 10.3094 12.5856 10.3186 10.8685C10.3214 10.3315 10.3413 9.78909 10.5732 9.28911C10.848 8.69668 11.4167 8.44 12.2178 8.54504C12.7689 8.61723 13.1207 8.99042 13.2302 9.64055C13.2708 9.88074 13.3012 10.1263 13.3026 10.3696C13.3133 12.2584 13.3148 14.1472 13.3226 16.036C13.3234 16.2104 13.271 16.4163 13.4957 16.504C13.488 16.5288 16.8869 16.5137 16.8879 16.4898C17.0707 16.3831 17.0237 16.1971 17.0239 16.0334" fill="current"/>
</g>
<path fill-rule="evenodd" clip-rule="evenodd" d="M4.27539 5.12528C3.28837 5.13356 2.30113 5.13175 1.31403 5.12626C1.03513 5.12461 0.896954 5.22089 0.897462 5.53832C0.903641 9.07793 0.901242 12.6175 0.901969 16.1571C0.902042 16.2919 0.881398 16.4399 1.04734 16.5013C1.05367 16.5229 4.53343 16.5215 4.54281 16.5001C4.72598 16.4288 4.68906 16.2627 4.68913 16.1192C4.69073 12.6045 4.68789 9.08981 4.69465 5.57518C4.69516 5.25624 4.58599 5.12265 4.27539 5.12528" fill="current"/>
<path fill-rule="evenodd" clip-rule="evenodd" d="M2.79603 0.378662C1.74752 0.378662 0.897461 1.22873 0.897461 2.27723C0.897461 3.32586 1.74752 4.17586 2.79603 4.17586C3.84459 4.17586 4.69466 3.32586 4.69466 2.27723C4.69466 1.22873 3.84459 0.378662 2.79603 0.378662" fill="current"/>
</svg>
