<svg width="412" height="412" viewBox="0 0 412 412" fill="none" xmlns="http://www.w3.org/2000/svg">
<g clip-path="url(#clip0_150_1078)">
<path d="M319.367 87.6333L307.35 99.65M55 197.5H72.1667H55ZM209.5 43V60.1667V43ZM346.833 197.5H364H346.833ZM99.6333 87.6333L111.65 99.65L99.6333 87.6333Z" stroke="white" stroke-width="13" stroke-linecap="round" stroke-linejoin="round"/>
<path d="M154.5 274.5C140.088 263.691 129.443 248.622 124.071 231.426C118.7 214.231 118.875 195.781 124.572 178.69C130.268 161.6 141.198 146.735 155.813 136.202C170.427 125.668 187.985 120 206 120C224.015 120 241.574 125.668 256.188 136.202C270.802 146.735 281.732 161.6 287.429 178.69C293.126 195.781 293.301 214.231 287.929 231.426C282.558 248.622 271.912 263.691 257.5 274.5C250.798 281.135 245.751 289.254 242.769 298.201C239.787 307.148 238.953 316.671 240.334 326C240.334 335.106 236.716 343.839 230.278 350.277C223.839 356.716 215.106 360.333 206 360.333C196.895 360.333 188.162 356.716 181.723 350.277C175.284 343.839 171.667 335.106 171.667 326C173.048 316.671 172.214 307.148 169.232 298.201C166.249 289.254 161.203 281.135 154.5 274.5Z" fill="white"/>
<path d="M154.5 274.5C140.088 263.691 129.443 248.622 124.071 231.426C118.7 214.231 118.875 195.781 124.572 178.69C130.268 161.6 141.198 146.735 155.813 136.202C170.427 125.668 187.985 120 206 120C224.015 120 241.574 125.668 256.188 136.202C270.802 146.735 281.732 161.6 287.429 178.69C293.126 195.781 293.301 214.231 287.929 231.426C282.558 248.622 271.912 263.691 257.5 274.5C250.798 281.135 245.751 289.254 242.769 298.201C239.787 307.148 238.953 316.671 240.334 326C240.334 335.106 236.716 343.839 230.278 350.277C223.839 356.716 215.106 360.333 206 360.333C196.895 360.333 188.162 356.716 181.723 350.277C175.284 343.839 171.667 335.106 171.667 326C173.048 316.671 172.214 307.148 169.232 298.201C166.249 289.254 161.203 281.135 154.5 274.5" stroke="#6D778C" stroke-width="13" stroke-linecap="round" stroke-linejoin="round"/>
<path d="M166.517 291.833H245.483" stroke="#6D778C" stroke-width="13" stroke-linecap="round" stroke-linejoin="round"/>
<path d="M180.946 345.189C175.379 334.054 175.379 306.216 172.595 295.081C194.865 294.153 225.487 292.296 239.406 297.865C240.006 298.105 239.406 306.217 233.838 334.054C230.315 351.669 211.568 356.324 206 356.324C200.433 356.324 184.883 353.063 180.946 345.189Z" fill="#00D1FF"/>
<path d="M194.576 186.048C197.456 182.688 201.104 180.96 205.424 180.96C210.704 180.96 213.296 183.744 213.296 189.312C213.296 192.288 212.624 195.456 211.184 199.008C209.84 202.56 208.688 206.016 207.728 209.376C206.864 212.736 206.864 216.192 207.728 219.648H207.92C209.936 212.544 216.752 206.688 221.456 201.312C224.912 197.376 227.312 192.192 227.312 186.72C227.312 179.808 222.608 175.008 216.944 173.376C214.16 172.512 211.184 172.032 207.824 172.032C206.384 172.032 202.736 172.32 196.976 172.896L194.48 185.952L194.576 186.048ZM207.92 241.152C212.144 241.152 215.6 237.696 215.6 233.376C215.6 229.152 212.144 225.696 207.92 225.696C203.6 225.696 200.144 229.152 200.144 233.376C200.144 237.696 203.6 241.152 207.92 241.152Z" fill="black"/>
</g>
<defs>
<clipPath id="clip0_150_1078">
<rect width="412" height="412" fill="white"/>
</clipPath>
</defs>
</svg>
