<svg width="325" height="260" viewBox="0 0 325 260" fill="none" xmlns="http://www.w3.org/2000/svg">
<circle cx="67.9228" cy="191.418" r="15.4369" fill="#00D1FF"/>
<path d="M175.896 118.772L270.46 53.2403L322.77 57.7595L228.262 126.925L175.896 118.772Z" fill="#00D1FF"/>
<path d="M167.295 118.524L261.224 52.0857L275.274 1.96468L177.986 67.1587L167.295 118.524Z" fill="#00D1FF"/>
<path fill-rule="evenodd" clip-rule="evenodd" d="M64.6993 174.565C59.7726 178.12 58.6604 184.995 62.215 189.922C65.7696 194.848 72.6451 195.961 77.5717 192.406L91.2132 182.563C92.1243 185.048 92.6215 187.733 92.6215 190.534C92.6215 203.322 82.2545 213.689 69.4661 213.689C56.6778 213.689 46.3107 203.322 46.3107 190.534C46.3107 177.745 56.6778 167.378 69.4661 167.378C71.0302 167.378 72.558 167.533 74.035 167.829L64.6993 174.565ZM88.8381 157.148C83.1446 153.838 76.5269 151.942 69.4663 151.942C48.1523 151.942 30.874 169.22 30.874 190.534C30.874 211.848 48.1523 229.126 69.4663 229.126C90.7803 229.126 108.059 211.848 108.059 190.534C108.059 184.35 106.604 178.505 104.018 173.324L114.135 166.025C118.134 173.296 120.408 181.65 120.408 190.534C120.408 218.668 97.6005 241.476 69.4661 241.476C41.3317 241.476 18.5242 218.668 18.5242 190.534C18.5242 162.4 41.3317 139.592 69.4661 139.592C80.7191 139.592 91.12 143.241 99.5501 149.42L88.8381 157.148ZM118.222 135.948C105.675 124.771 89.1353 117.98 71.0099 117.98C31.7922 117.98 0 149.772 0 188.99C0 228.208 31.7922 260 71.0099 260C110.228 260 142.02 228.208 142.02 188.99C142.02 175.845 138.448 163.534 132.222 152.975L261.943 59.3803C266.869 55.8256 267.982 48.9502 264.427 44.0236C260.872 39.0969 253.997 37.9847 249.07 41.5393L118.222 135.948ZM118.222 135.948L99.5501 149.42C105.541 153.811 110.536 159.48 114.135 166.025L132.222 152.975C128.458 146.591 123.724 140.848 118.222 135.948ZM88.8381 157.148L74.035 167.829C81.9902 169.421 88.4732 175.089 91.2132 182.563L104.018 173.324C100.645 166.564 95.345 160.932 88.8381 157.148Z" fill="white"/>
</svg>
