<svg width="18" height="18" viewBox="0 0 18 18" fill="none" xmlns="http://www.w3.org/2000/svg">
<path fill-rule="evenodd" clip-rule="evenodd" d="M17.4031 8.27689C17.2681 6.09678 16.2911 4.05445 14.6786 2.5811L14.6691 2.52414C14.5973 2.43596 14.5018 2.3701 14.3938 2.33428C12.874 1.06378 10.9542 0.371159 8.97331 0.378723H8.41322C7.35361 0.473865 6.3206 0.763493 5.36597 1.23309H5.28054C1.74575 2.95629 -0.132766 6.89041 0.749328 10.7226C1.63142 14.5549 5.04087 17.2718 8.97331 17.2762H9.5334C11.7708 17.1276 13.8574 16.0957 15.3335 14.4077C16.8096 12.7197 17.5541 10.5142 17.4031 8.27689ZM11.0618 8.60914C10.758 8.02057 10.4447 7.43201 10.1125 6.86243C11.1645 6.28234 12.1539 5.5952 13.0648 4.81195L14.0141 3.97656C15.1017 5.11751 15.7709 6.5931 15.9127 8.16297C14.3189 7.99753 12.7083 8.13605 11.1662 8.57117L11.0618 8.60914ZM8.9828 1.82165H8.51765C7.93188 1.86826 7.35447 1.98948 6.79941 2.18239C7.73467 3.27758 8.59419 4.43524 9.37201 5.64733C10.3579 5.10988 11.2866 4.47375 12.144 3.74873L12.9319 3.06524C11.7727 2.25852 10.395 1.82468 8.9828 1.82165ZM5.45141 2.77095L5.51786 2.8374C6.45579 3.92713 7.31547 5.08182 8.09046 6.29285C6.61094 6.9397 5.04314 7.36205 3.4389 7.54593L2.05292 7.69781C2.39434 5.62846 3.64016 3.81889 5.45141 2.76146V2.77095ZM1.96748 9.13125V9.28314C2.08329 10.9221 2.77223 12.468 3.91354 13.6499C4.89733 12.1308 6.2323 10.8707 7.80567 9.97613C8.42053 9.64457 9.0545 9.34977 9.70427 9.09328C9.42897 8.55218 9.14418 8.02057 8.84041 7.49846C7.18055 8.25407 5.41228 8.74419 3.60028 8.95089L1.96748 9.13125ZM9.42898 15.8333H8.96382C7.53242 15.831 6.13664 15.3868 4.96727 14.5612C5.83808 13.1736 7.03808 12.0226 8.46069 11.2102C9.07613 10.8882 9.71011 10.6029 10.3593 10.3558C10.9913 11.7522 11.5212 13.1926 11.9446 14.6657L12.0775 15.1213C11.2518 15.5352 10.3509 15.7774 9.42898 15.8333ZM13.3021 14.3524C13.6456 14.0851 13.9634 13.7863 14.2514 13.4601C15.2129 12.379 15.8135 11.0252 15.9696 9.58692C14.538 9.42657 13.0891 9.53605 11.6978 9.90968C12.3362 11.3316 12.8724 12.7972 13.3021 14.2954V14.3524Z" fill="current"/>
</svg>
