<svg width="368" height="88" viewBox="0 0 368 88" fill="none" xmlns="http://www.w3.org/2000/svg">
<path d="M26.2322 25.72L25.9482 24.7612L26.0238 26.698L26.2322 25.72ZM30.9362 28.648L30.1442 29.2585L30.1505 29.2666L30.9362 28.648ZM29.7362 40.552L30.3777 41.3192L30.3789 41.3182L29.7362 40.552ZM5.83225 43H4.83225V44H5.83225V43ZM5.83225 9.304V8.304H4.83225V9.304H5.83225ZM29.0162 11.656L28.3837 12.4306L28.39 12.4356L29.0162 11.656ZM30.3602 22.984L29.5812 22.357L29.5765 22.3628L29.5719 22.3687L30.3602 22.984ZM14.0402 22.936H13.0402V23.936H14.0402V22.936ZM22.4882 22.072L23.1215 22.846L23.1251 22.843L22.4882 22.072ZM22.4882 16.792L21.8346 17.5488L21.8429 17.556L21.8514 17.563L22.4882 16.792ZM14.0402 15.88V14.88H13.0402V15.88H14.0402ZM23.2562 35.464L23.8931 36.235L23.8964 36.2322L23.2562 35.464ZM23.2082 29.944L22.5497 30.6966L22.5573 30.7032L22.5651 30.7097L23.2082 29.944ZM14.0402 28.936V27.936H13.0402V28.936H14.0402ZM14.0402 36.376H13.0402V37.376H14.0402V36.376ZM26.0238 26.698C27.7512 27.0662 29.1096 27.9162 30.1442 29.2585L31.7283 28.0375C30.3949 26.3078 28.6173 25.2058 26.4407 24.742L26.0238 26.698ZM30.1505 29.2666C31.1928 30.5905 31.7122 32.0996 31.7122 33.832H33.7122C33.7122 31.6604 33.0477 29.7135 31.722 28.0294L30.1505 29.2666ZM31.7122 33.832C31.7122 36.3817 30.8295 38.3299 29.0936 39.7858L30.3789 41.3182C32.611 39.4461 33.7122 36.9143 33.7122 33.832H31.7122ZM29.0948 39.7848C27.3811 41.2176 24.9031 42 21.5282 42V44C25.1934 44 28.1874 43.1504 30.3777 41.3192L29.0948 39.7848ZM21.5282 42H5.83225V44H21.5282V42ZM6.83225 43V9.304H4.83225V43H6.83225ZM5.83225 10.304H21.0002V8.304H5.83225V10.304ZM21.0002 10.304C24.2808 10.304 26.6997 11.0553 28.3837 12.4305L29.6488 10.8815C27.4928 9.12071 24.5677 8.304 21.0002 8.304V10.304ZM28.39 12.4356C30.0864 13.7983 30.9442 15.6295 30.9442 18.04H32.9442C32.9442 15.0745 31.85 12.6497 29.6425 10.8764L28.39 12.4356ZM30.9442 18.04C30.9442 19.8383 30.4697 21.2531 29.5812 22.357L31.1393 23.611C32.3628 22.0909 32.9442 20.2097 32.9442 18.04H30.9442ZM29.5719 22.3687C28.6869 23.5027 27.4939 24.3032 25.9482 24.7612L26.5163 26.6788C28.4266 26.1128 29.9856 25.0893 31.1486 23.5993L29.5719 22.3687ZM14.0402 23.936H19.4162V21.936H14.0402V23.936ZM19.4162 23.936C20.8846 23.936 22.1709 23.6237 23.1215 22.846L21.855 21.298C21.3976 21.6722 20.6359 21.936 19.4162 21.936V23.936ZM23.1251 22.843C24.1388 22.0056 24.5922 20.8143 24.5922 19.432H22.5922C22.5922 20.3537 22.3097 20.9224 21.8514 21.301L23.1251 22.843ZM24.5922 19.432C24.5922 18.0497 24.1388 16.8584 23.1251 16.021L21.8514 17.563C22.3097 17.9416 22.5922 18.5103 22.5922 19.432H24.5922ZM23.1419 16.0352C22.1901 15.2132 20.8954 14.88 19.4162 14.88V16.88C20.6251 16.88 21.3784 17.1548 21.8346 17.5488L23.1419 16.0352ZM19.4162 14.88H14.0402V16.88H19.4162V14.88ZM13.0402 15.88V22.936H15.0402V15.88H13.0402ZM20.0882 37.376C21.5965 37.376 22.9134 37.0443 23.8931 36.235L22.6194 34.693C22.1271 35.0997 21.332 35.376 20.0882 35.376V37.376ZM23.8964 36.2322C24.9352 35.3666 25.4082 34.1482 25.4082 32.728H23.4082C23.4082 33.6758 23.1133 34.2814 22.6161 34.6958L23.8964 36.2322ZM25.4082 32.728C25.4082 31.2927 24.9094 30.067 23.8514 29.1783L22.5651 30.7097C23.1071 31.165 23.4082 31.7953 23.4082 32.728H25.4082ZM23.8668 29.1914C22.8612 28.3116 21.5253 27.936 19.9922 27.936V29.936C21.2112 29.936 22.0193 30.2324 22.5497 30.6966L23.8668 29.1914ZM19.9922 27.936H14.0402V29.936H19.9922V27.936ZM13.0402 28.936V36.376H15.0402V28.936H13.0402ZM14.0402 37.376H20.0882V35.376H14.0402V37.376ZM64.2209 16.216H65.2209V15.216H64.2209V16.216ZM64.2209 43V44H65.2209V43H64.2209ZM56.0129 43H55.0129V44H56.0129V43ZM56.0129 39.352H57.0129V36.1896L55.1947 38.7771L56.0129 39.352ZM52.6049 42.232L53.0521 43.1265L53.06 43.1224L52.6049 42.232ZM42.4769 41.944L41.9676 42.8046L41.9741 42.8085L41.9807 42.8122L42.4769 41.944ZM38.8289 37.96L37.9344 38.4072L38.8289 37.96ZM37.5329 16.216V15.216H36.5329V16.216H37.5329ZM45.6929 16.216H46.6929V15.216H45.6929V16.216ZM47.0849 34.936L46.3546 35.6192L46.3546 35.6192L47.0849 34.936ZM56.0129 16.216V15.216H55.0129V16.216H56.0129ZM63.2209 16.216V43H65.2209V16.216H63.2209ZM64.2209 42H56.0129V44H64.2209V42ZM57.0129 43V39.352H55.0129V43H57.0129ZM55.1947 38.7771C54.4668 39.8129 53.4622 40.6708 52.1498 41.3416L53.06 43.1224C54.6276 42.3212 55.8949 41.2591 56.8311 39.9269L55.1947 38.7771ZM52.1577 41.3376C50.9017 41.9656 49.489 42.288 47.9009 42.288V44.288C49.7687 44.288 51.4921 43.9064 53.0521 43.1264L52.1577 41.3376ZM47.9009 42.288C46.0032 42.288 44.3706 41.8744 42.973 41.0758L41.9807 42.8122C43.7192 43.8056 45.7026 44.288 47.9009 44.288V42.288ZM42.9862 41.0834C41.5938 40.2593 40.5068 39.0797 39.7233 37.5128L37.9344 38.4072C38.879 40.2963 40.224 41.7727 41.9676 42.8046L42.9862 41.0834ZM39.7233 37.5128C38.9418 35.9497 38.5329 34.0768 38.5329 31.864H36.5329C36.5329 34.3232 36.988 36.5143 37.9344 38.4072L39.7233 37.5128ZM38.5329 31.864V16.216H36.5329V31.864H38.5329ZM37.5329 17.216H45.6929V15.216H37.5329V17.216ZM44.6929 16.216V30.76H46.6929V16.216H44.6929ZM44.6929 30.76C44.6929 32.7226 45.2038 34.389 46.3546 35.6192L47.8151 34.2528C47.1099 33.499 46.6929 32.3814 46.6929 30.76H44.6929ZM46.3546 35.6192C47.5014 36.8451 49.0309 37.424 50.8289 37.424V35.424C49.4909 35.424 48.5243 35.0109 47.8151 34.2528L46.3546 35.6192ZM50.8289 37.424C52.6521 37.424 54.2003 36.8493 55.3511 35.6192L53.8906 34.2528C53.1854 35.0067 52.2057 35.424 50.8289 35.424V37.424ZM55.3511 35.6192C56.5019 34.389 57.0129 32.7226 57.0129 30.76H55.0129C55.0129 32.3814 54.5958 33.499 53.8906 34.2528L55.3511 35.6192ZM57.0129 30.76V16.216H55.0129V30.76H57.0129ZM56.0129 17.216H64.2209V15.216H56.0129V17.216ZM70.4646 22.312L69.5898 21.8275L69.5841 21.8379L70.4646 22.312ZM75.2166 17.512L74.7368 16.6346L74.731 16.6378L75.2166 17.512ZM90.6246 18.472L90.0068 19.2583L90.0122 19.2625L90.6246 18.472ZM95.0886 25.912V26.912H96.3325L96.0653 25.6971L95.0886 25.912ZM86.3526 25.912L85.4115 26.2502L85.6494 26.912H86.3526V25.912ZM78.4806 24.616L79.27 25.23L79.278 25.2194L78.4806 24.616ZM78.4806 34.648L77.6831 35.2515L77.6913 35.2619L78.4806 34.648ZM86.3526 33.304V32.304H85.6494L85.4115 32.9658L86.3526 33.304ZM95.0886 33.304L96.0643 33.523L96.338 32.304H95.0886V33.304ZM90.6246 40.696L90.0053 39.9108L90.0053 39.9108L90.6246 40.696ZM75.2166 41.704L74.731 42.5782L74.7368 42.5814L75.2166 41.704ZM70.4646 36.904L69.5841 37.3781L69.5898 37.3885L70.4646 36.904ZM69.7846 29.608C69.7846 26.9599 70.3165 24.6964 71.3451 22.7861L69.5841 21.8379C68.3728 24.0876 67.7846 26.6881 67.7846 29.608H69.7846ZM71.3394 22.7965C72.4037 20.8749 73.8552 19.4123 75.7023 18.3862L74.731 16.6378C72.5461 17.8517 70.8296 19.5891 69.5898 21.8275L71.3394 22.7965ZM75.6964 18.3894C77.5798 17.3594 79.7472 16.832 82.2246 16.832V14.832C79.4541 14.832 76.9494 15.4246 74.7368 16.6346L75.6964 18.3894ZM82.2246 16.832C85.4024 16.832 87.9733 17.6605 90.0068 19.2583L91.2424 17.6857C88.796 15.7635 85.7669 14.832 82.2246 14.832V16.832ZM90.0122 19.2625C92.0735 20.8593 93.4508 23.1216 94.112 26.1269L96.0653 25.6971C95.3184 22.3024 93.7198 19.6047 91.237 17.6814L90.0122 19.2625ZM95.0886 24.912H86.3526V26.912H95.0886V24.912ZM87.2937 25.5738C86.8739 24.4056 86.2285 23.452 85.3164 22.7961C84.402 22.1385 83.3024 21.84 82.0806 21.84V23.84C82.9708 23.84 83.6392 24.0535 84.1488 24.4199C84.6608 24.788 85.0954 25.3704 85.4115 26.2502L87.2937 25.5738ZM82.0806 21.84C80.2681 21.84 78.7711 22.575 77.6832 24.0126L79.278 25.2194C79.9821 24.289 80.8851 23.84 82.0806 23.84V21.84ZM77.6913 24.0021C76.6061 25.3973 76.1366 27.3141 76.1366 29.608H78.1366C78.1366 27.5499 78.5631 26.1387 79.27 25.2299L77.6913 24.0021ZM76.1366 29.608C76.1366 31.9045 76.6071 33.8295 77.6832 35.2514L79.278 34.0446C78.5621 33.0985 78.1366 31.6635 78.1366 29.608H76.1366ZM77.6913 35.2619C78.7834 36.6661 80.279 37.376 82.0806 37.376V35.376C80.8742 35.376 79.9699 34.9339 79.27 34.0341L77.6913 35.2619ZM82.0806 37.376C83.3024 37.376 84.402 37.0775 85.3164 36.4199C86.2285 35.764 86.8739 34.8104 87.2937 33.6422L85.4115 32.9658C85.0954 33.8456 84.6608 34.428 84.1488 34.7961C83.6392 35.1625 82.9708 35.376 82.0806 35.376V37.376ZM86.3526 34.304H95.0886V32.304H86.3526V34.304ZM94.1129 33.085C93.4533 36.0233 92.0769 38.2769 90.0053 39.9108L91.2439 41.4812C93.7163 39.5311 95.316 36.8567 96.0643 33.523L94.1129 33.085ZM90.0053 39.9108C87.9357 41.5433 85.3633 42.384 82.2246 42.384V44.384C85.742 44.384 88.7696 43.4327 91.2439 41.4812L90.0053 39.9108ZM82.2246 42.384C79.7472 42.384 77.5798 41.8566 75.6964 40.8266L74.7368 42.5814C76.9494 43.7914 79.4541 44.384 82.2246 44.384V42.384ZM75.7023 40.8298C73.8552 39.8037 72.4037 38.3411 71.3394 36.4195L69.5898 37.3885C70.8296 39.6269 72.5461 41.3643 74.731 42.5782L75.7023 40.8298ZM71.3451 36.4299C70.3165 34.5196 69.7846 32.2561 69.7846 29.608H67.7846C67.7846 32.5279 68.3728 35.1284 69.5841 37.3781L71.3451 36.4299ZM123.635 19L122.894 19.6715L122.899 19.6773L123.635 19ZM126.419 43V44H127.419V43H126.419ZM118.259 43H117.259V44H118.259V43ZM116.867 24.28L116.137 24.9632L116.137 24.9632L116.867 24.28ZM109.379 24.28L110.109 24.9632L110.109 24.9632L109.379 24.28ZM107.987 43V44H108.987V43H107.987ZM99.7791 43H98.7791V44H99.7791V43ZM99.7791 7.48V6.48H98.7791V7.48H99.7791ZM107.987 7.48H108.987V6.48H107.987V7.48ZM107.987 19.816H106.987V22.9784L108.805 20.3909L107.987 19.816ZM111.395 16.984L110.956 16.0856L110.956 16.0856L111.395 16.984ZM116.243 16.928C119.068 16.928 121.25 17.8573 122.894 19.6715L124.376 18.3285C122.308 16.0467 119.562 14.928 116.243 14.928V16.928ZM122.899 19.6773C124.54 21.4592 125.419 23.9743 125.419 27.352H127.419C127.419 23.6257 126.442 20.5728 124.371 18.3227L122.899 19.6773ZM125.419 27.352V43H127.419V27.352H125.419ZM126.419 42H118.259V44H126.419V42ZM119.259 43V28.456H117.259V43H119.259ZM119.259 28.456C119.259 26.4934 118.748 24.827 117.597 23.5968L116.137 24.9632C116.842 25.717 117.259 26.8346 117.259 28.456H119.259ZM117.597 23.5968C116.451 22.3709 114.921 21.792 113.123 21.792V23.792C114.461 23.792 115.428 24.2051 116.137 24.9632L117.597 23.5968ZM113.123 21.792C111.325 21.792 109.796 22.3709 108.649 23.5968L110.109 24.9632C110.819 24.2051 111.785 23.792 113.123 23.792V21.792ZM108.649 23.5968C107.498 24.827 106.987 26.4934 106.987 28.456H108.987C108.987 26.8346 109.404 25.717 110.109 24.9632L108.649 23.5968ZM106.987 28.456V43H108.987V28.456H106.987ZM107.987 42H99.7791V44H107.987V42ZM100.779 43V7.48H98.7791V43H100.779ZM99.7791 8.48H107.987V6.48H99.7791V8.48ZM106.987 7.48V19.816H108.987V7.48H106.987ZM108.805 20.3909C109.53 19.3594 110.529 18.5204 111.834 17.8824L110.956 16.0856C109.381 16.8556 108.108 17.9046 107.169 19.2411L108.805 20.3909ZM111.834 17.8824C113.122 17.2528 114.585 16.928 116.243 16.928V14.928C114.317 14.928 112.548 15.3072 110.956 16.0856L111.834 17.8824ZM132.999 12.184L132.305 12.9038L132.318 12.9164L132.331 12.9286L132.999 12.184ZM132.999 5.848L133.679 6.58079L133.68 6.57989L132.999 5.848ZM140.007 5.848L139.313 6.56784L139.326 6.58045L139.339 6.59257L140.007 5.848ZM140.007 12.184L140.687 12.9168L140.688 12.9159L140.007 12.184ZM140.631 16.216H141.631V15.216H140.631V16.216ZM140.631 43V44H141.631V43H140.631ZM132.423 43H131.423V44H132.423V43ZM132.423 16.216V15.216H131.423V16.216H132.423ZM136.551 12.432C135.316 12.432 134.383 12.0816 133.666 11.4394L132.331 12.9286C133.471 13.9504 134.905 14.432 136.551 14.432V12.432ZM133.693 11.4642C132.993 10.7892 132.655 9.99329 132.655 9.016H130.655C130.655 10.5347 131.213 11.8508 132.305 12.9038L133.693 11.4642ZM132.655 9.016C132.655 7.99938 132.998 7.21381 133.679 6.58079L132.318 5.1152C131.208 6.14618 130.655 7.47261 130.655 9.016H132.655ZM133.68 6.57989C134.398 5.91183 135.327 5.552 136.551 5.552V3.552C134.895 3.552 133.456 4.05617 132.317 5.1161L133.68 6.57989ZM136.551 5.552C137.737 5.552 138.628 5.90759 139.313 6.56784L140.701 5.12815C139.594 4.0604 138.181 3.552 136.551 3.552V5.552ZM139.339 6.59257C140.049 7.22913 140.399 8.01141 140.399 9.016H142.399C142.399 7.46059 141.82 6.13087 140.674 5.10343L139.339 6.59257ZM140.399 9.016C140.399 9.98139 140.054 10.7738 139.325 11.4521L140.688 12.9159C141.816 11.8662 142.399 10.5466 142.399 9.016H140.399ZM139.326 11.4512C138.643 12.0855 137.747 12.432 136.551 12.432V14.432C138.17 14.432 139.578 13.9465 140.687 12.9168L139.326 11.4512ZM139.631 16.216V43H141.631V16.216H139.631ZM140.631 42H132.423V44H140.631V42ZM133.423 43V16.216H131.423V43H133.423ZM132.423 17.216H140.631V15.216H132.423V17.216ZM165.559 15.88V14.88H164.559V15.88H165.559ZM165.559 22.696H164.559V23.696H165.559V22.696ZM176.551 22.696H177.551V21.696H176.551V22.696ZM176.551 29.032V30.032H177.551V29.032H176.551ZM165.559 29.032V28.032H164.559V29.032H165.559ZM165.559 36.424H164.559V37.424H165.559V36.424ZM177.991 36.424H178.991V35.424H177.991V36.424ZM177.991 43V44H178.991V43H177.991ZM157.351 43H156.351V44H157.351V43ZM157.351 9.304V8.304H156.351V9.304H157.351ZM177.991 9.304H178.991V8.304H177.991V9.304ZM177.991 15.88V16.88H178.991V15.88H177.991ZM164.559 15.88V22.696H166.559V15.88H164.559ZM165.559 23.696H176.551V21.696H165.559V23.696ZM175.551 22.696V29.032H177.551V22.696H175.551ZM176.551 28.032H165.559V30.032H176.551V28.032ZM164.559 29.032V36.424H166.559V29.032H164.559ZM165.559 37.424H177.991V35.424H165.559V37.424ZM176.991 36.424V43H178.991V36.424H176.991ZM177.991 42H157.351V44H177.991V42ZM158.351 43V9.304H156.351V43H158.351ZM157.351 10.304H177.991V8.304H157.351V10.304ZM176.991 9.304V15.88H178.991V9.304H176.991ZM177.991 14.88H165.559V16.88H177.991V14.88ZM191.828 20.008H190.828V23.421L192.67 20.5477L191.828 20.008ZM195.14 16.984L194.661 16.1061L194.661 16.1061L195.14 16.984ZM206.084 17.512L205.554 18.36L205.554 18.36L206.084 17.512ZM210.308 22.312L209.411 22.7537L209.416 22.7647L210.308 22.312ZM210.308 36.856L209.413 36.4088L209.411 36.4143L210.308 36.856ZM206.084 41.704L206.614 42.5521L206.625 42.5452L206.084 41.704ZM195.14 42.232L194.661 43.1099L194.669 43.1144L195.14 42.232ZM191.828 39.256L192.663 38.7064L190.828 35.9166V39.256H191.828ZM191.828 55.768V56.768H192.828V55.768H191.828ZM183.62 55.768H182.62V56.768H183.62V55.768ZM183.62 16.216V15.216H182.62V16.216H183.62ZM191.828 16.216H192.828V15.216H191.828V16.216ZM201.812 24.76L201.085 25.4472L201.095 25.4573L201.105 25.4671L201.812 24.76ZM193.46 24.76L192.743 24.0626L192.733 24.0728L193.46 24.76ZM193.46 34.456L192.733 35.1433L192.743 35.1534L193.46 34.456ZM201.812 34.456L202.529 35.1534L202.538 35.1437L201.812 34.456ZM192.67 20.5477C193.372 19.4526 194.346 18.5562 195.619 17.8619L194.661 16.1061C193.118 16.9478 191.884 18.0674 190.986 19.4683L192.67 20.5477ZM195.619 17.8619C196.856 17.1871 198.333 16.832 200.084 16.832V14.832C198.058 14.832 196.24 15.2449 194.661 16.1061L195.619 17.8619ZM200.084 16.832C202.113 16.832 203.928 17.3439 205.554 18.36L206.614 16.664C204.656 15.4401 202.47 14.832 200.084 14.832V16.832ZM205.554 18.36C207.173 19.3719 208.461 20.8239 209.411 22.7537L211.205 21.8703C210.107 19.6401 208.579 17.8921 206.614 16.664L205.554 18.36ZM209.416 22.7647C210.389 24.6813 210.892 26.9372 210.892 29.56H212.892C212.892 26.6788 212.338 24.1027 211.199 21.8593L209.416 22.7647ZM210.892 29.56C210.892 32.1824 210.389 34.4569 209.413 36.4088L211.202 37.3032C212.338 35.0311 212.892 32.4416 212.892 29.56H210.892ZM209.411 36.4143C208.46 38.3461 207.169 39.8177 205.543 40.8628L206.625 42.5452C208.583 41.2863 210.108 39.5259 211.205 37.2977L209.411 36.4143ZM205.554 40.856C203.928 41.8721 202.113 42.384 200.084 42.384V44.384C202.47 44.384 204.656 43.7759 206.614 42.552L205.554 40.856ZM200.084 42.384C198.369 42.384 196.887 42.0304 195.61 41.3496L194.669 43.1144C196.273 43.9696 198.086 44.384 200.084 44.384V42.384ZM195.619 41.3541C194.34 40.6565 193.364 39.7718 192.663 38.7064L190.992 39.8056C191.891 41.1722 193.124 42.2715 194.661 43.1099L195.619 41.3541ZM190.828 39.256V55.768H192.828V39.256H190.828ZM191.828 54.768H183.62V56.768H191.828V54.768ZM184.62 55.768V16.216H182.62V55.768H184.62ZM183.62 17.216H191.828V15.216H183.62V17.216ZM190.828 16.216V20.008H192.828V16.216H190.828ZM204.54 29.56C204.54 27.3187 203.904 25.4378 202.519 24.0529L201.105 25.4671C202.024 26.3862 202.54 27.7053 202.54 29.56H204.54ZM202.538 24.0728C201.225 22.6844 199.568 21.984 197.636 21.984V23.984C199.031 23.984 200.159 24.4676 201.085 25.4472L202.538 24.0728ZM197.636 21.984C195.73 21.984 194.081 22.6878 192.743 24.0626L194.176 25.4574C195.143 24.4642 196.277 23.984 197.636 23.984V21.984ZM192.733 24.0728C191.396 25.4869 190.78 27.373 190.78 29.608H192.78C192.78 27.747 193.284 26.4011 194.186 25.4472L192.733 24.0728ZM190.78 29.608C190.78 31.843 191.396 33.7291 192.733 35.1432L194.186 33.7688C193.284 32.8149 192.78 31.469 192.78 29.608H190.78ZM192.743 35.1534C194.081 36.5282 195.73 37.232 197.636 37.232V35.232C196.277 35.232 195.143 34.7518 194.176 33.7586L192.743 35.1534ZM197.636 37.232C199.541 37.232 201.191 36.5282 202.528 35.1534L201.095 33.7586C200.129 34.7518 198.994 35.232 197.636 35.232V37.232ZM202.538 35.1437C203.903 33.7025 204.54 31.8038 204.54 29.56H202.54C202.54 31.4122 202.024 32.7775 201.086 33.7683L202.538 35.1437ZM240.354 19L239.613 19.6715L239.618 19.6773L240.354 19ZM243.138 43V44H244.138V43H243.138ZM234.978 43H233.978V44H234.978V43ZM233.586 24.28L232.856 24.9632L232.856 24.9632L233.586 24.28ZM226.098 24.28L226.828 24.9632L226.828 24.9632L226.098 24.28ZM224.706 43V44H225.706V43H224.706ZM216.498 43H215.498V44H216.498V43ZM216.498 7.48V6.48H215.498V7.48H216.498ZM224.706 7.48H225.706V6.48H224.706V7.48ZM224.706 19.816H223.706V22.9784L225.524 20.3909L224.706 19.816ZM228.114 16.984L227.675 16.0856L227.675 16.0856L228.114 16.984ZM232.962 16.928C235.787 16.928 237.969 17.8573 239.613 19.6715L241.095 18.3285C239.027 16.0467 236.281 14.928 232.962 14.928V16.928ZM239.618 19.6773C241.259 21.4592 242.138 23.9743 242.138 27.352H244.138C244.138 23.6257 243.161 20.5728 241.09 18.3227L239.618 19.6773ZM242.138 27.352V43H244.138V27.352H242.138ZM243.138 42H234.978V44H243.138V42ZM235.978 43V28.456H233.978V43H235.978ZM235.978 28.456C235.978 26.4934 235.467 24.827 234.316 23.5968L232.856 24.9632C233.561 25.717 233.978 26.8346 233.978 28.456H235.978ZM234.316 23.5968C233.169 22.3709 231.64 21.792 229.842 21.792V23.792C231.18 23.792 232.146 24.2051 232.856 24.9632L234.316 23.5968ZM229.842 21.792C228.044 21.792 226.514 22.3709 225.368 23.5968L226.828 24.9632C227.537 24.2051 228.504 23.792 229.842 23.792V21.792ZM225.368 23.5968C224.217 24.827 223.706 26.4934 223.706 28.456H225.706C225.706 26.8346 226.123 25.717 226.828 24.9632L225.368 23.5968ZM223.706 28.456V43H225.706V28.456H223.706ZM224.706 42H216.498V44H224.706V42ZM217.498 43V7.48H215.498V43H217.498ZM216.498 8.48H224.706V6.48H216.498V8.48ZM223.706 7.48V19.816H225.706V7.48H223.706ZM225.524 20.3909C226.249 19.3594 227.248 18.5204 228.553 17.8824L227.675 16.0856C226.1 16.8556 224.827 17.9046 223.888 19.2411L225.524 20.3909ZM228.553 17.8824C229.841 17.2528 231.304 16.928 232.962 16.928V14.928C231.036 14.928 229.267 15.3072 227.675 16.0856L228.553 17.8824ZM257.35 20.68H256.35V24.0439L258.187 21.2263L257.35 20.68ZM260.95 17.224L261.45 18.0899L261.457 18.0857L261.464 18.0815L260.95 17.224ZM265.75 15.928H266.75V14.928H265.75V15.928ZM265.75 24.616V25.616H266.75V24.616H265.75ZM258.886 25.96L259.53 26.7243L259.537 26.7185L259.544 26.7126L258.886 25.96ZM257.35 43V44H258.35V43H257.35ZM249.142 43H248.142V44H249.142V43ZM249.142 16.216V15.216H248.142V16.216H249.142ZM257.35 16.216H258.35V15.216H257.35V16.216ZM258.187 21.2263C259.066 19.8781 260.154 18.8388 261.45 18.0899L260.449 16.3581C258.866 17.2732 257.553 18.5379 256.512 20.1337L258.187 21.2263ZM261.464 18.0815C262.741 17.3153 264.162 16.928 265.75 16.928V14.928C263.817 14.928 262.038 15.4047 260.435 16.3665L261.464 18.0815ZM264.75 15.928V24.616H266.75V15.928H264.75ZM265.75 23.616H263.494V25.616H265.75V23.616ZM263.494 23.616C261.322 23.616 259.506 24.0882 258.227 25.2074L259.544 26.7126C260.313 26.0398 261.569 25.616 263.494 25.616V23.616ZM258.241 25.1957C256.88 26.3438 256.35 28.2517 256.35 30.568H258.35C258.35 28.4683 258.843 27.3042 259.53 26.7243L258.241 25.1957ZM256.35 30.568V43H258.35V30.568H256.35ZM257.35 42H249.142V44H257.35V42ZM250.142 43V16.216H248.142V43H250.142ZM249.142 17.216H257.35V15.216H249.142V17.216ZM256.35 16.216V20.68H258.35V16.216H256.35ZM269.877 22.312L268.985 21.8593L268.98 21.8703L269.877 22.312ZM274.149 17.512L274.679 18.36L274.679 18.36L274.149 17.512ZM285.093 16.984L284.614 17.8619L284.622 17.8663L285.093 16.984ZM288.405 20.008L287.553 20.5321L289.405 23.541V20.008H288.405ZM288.405 16.216V15.216H287.405V16.216H288.405ZM296.613 16.216H297.613V15.216H296.613V16.216ZM296.613 43V44H297.613V43H296.613ZM288.405 43H287.405V44H288.405V43ZM288.405 39.208H289.405V35.795L287.563 38.6683L288.405 39.208ZM285.045 42.232L284.574 41.3496L284.566 41.3541L285.045 42.232ZM274.149 41.704L273.608 42.5452L273.619 42.552L274.149 41.704ZM269.877 36.856L268.977 37.2923L268.981 37.3005L268.985 37.3087L269.877 36.856ZM286.677 24.76L285.95 25.4473L285.96 25.4574L286.677 24.76ZM278.373 24.76L277.656 24.0626L277.656 24.0629L278.373 24.76ZM278.373 34.456L277.637 35.1335L277.647 35.1435L277.656 35.1534L278.373 34.456ZM286.677 34.456L285.96 33.7586L285.95 33.7688L286.677 34.456ZM269.341 29.56C269.341 26.9327 269.829 24.6729 270.774 22.7537L268.98 21.8703C267.877 24.1111 267.341 26.6833 267.341 29.56H269.341ZM270.769 22.7647C271.751 20.8295 273.057 19.3738 274.679 18.36L273.619 16.664C271.657 17.8902 270.115 19.6345 268.985 21.8593L270.769 22.7647ZM274.679 18.36C276.305 17.3439 278.119 16.832 280.149 16.832V14.832C277.762 14.832 275.577 15.4401 273.619 16.664L274.679 18.36ZM280.149 16.832C281.899 16.832 283.377 17.1871 284.614 17.8619L285.572 16.1061C283.993 15.2449 282.174 14.832 280.149 14.832V16.832ZM284.622 17.8663C285.924 18.5606 286.888 19.4519 287.553 20.5321L289.257 19.4839C288.385 18.0681 287.142 16.9434 285.563 16.1016L284.622 17.8663ZM289.405 20.008V16.216H287.405V20.008H289.405ZM288.405 17.216H296.613V15.216H288.405V17.216ZM295.613 16.216V43H297.613V16.216H295.613ZM296.613 42H288.405V44H296.613V42ZM289.405 43V39.208H287.405V43H289.405ZM287.563 38.6683C286.865 39.758 285.879 40.6539 284.574 41.3496L285.515 43.1144C287.091 42.2741 288.345 41.154 289.247 39.7477L287.563 38.6683ZM284.566 41.3541C283.329 42.0289 281.851 42.384 280.101 42.384V44.384C282.126 44.384 283.945 43.9711 285.524 43.1099L284.566 41.3541ZM280.101 42.384C278.106 42.384 276.307 41.8736 274.679 40.856L273.619 42.552C275.575 43.7744 277.743 44.384 280.101 44.384V42.384ZM274.69 40.8628C273.061 39.8158 271.752 38.3404 270.769 36.4033L268.985 37.3087C270.114 39.5316 271.653 41.2882 273.608 42.5452L274.69 40.8628ZM270.777 36.4197C269.829 34.4653 269.341 32.1868 269.341 29.56H267.341C267.341 32.4372 267.877 35.0227 268.977 37.2923L270.777 36.4197ZM289.405 29.608C289.405 27.3654 288.769 25.4757 287.394 24.0626L285.96 25.4574C286.889 26.4123 287.405 27.7546 287.405 29.608H289.405ZM287.403 24.0728C286.094 22.6888 284.455 21.984 282.549 21.984V23.984C283.906 23.984 285.02 24.4632 285.95 25.4472L287.403 24.0728ZM282.549 21.984C280.643 21.984 278.994 22.6878 277.656 24.0626L279.09 25.4574C280.056 24.4642 281.191 23.984 282.549 23.984V21.984ZM277.656 24.0629C276.308 25.4491 275.693 27.3264 275.693 29.56H277.693C277.693 27.6976 278.198 26.3749 279.09 25.4571L277.656 24.0629ZM275.693 29.56C275.693 31.7963 276.309 33.6914 277.637 35.1335L279.108 33.7785C278.197 32.7886 277.693 31.4197 277.693 29.56H275.693ZM277.656 35.1534C278.994 36.5282 280.643 37.232 282.549 37.232V35.232C281.191 35.232 280.056 34.7518 279.09 33.7586L277.656 35.1534ZM282.549 37.232C284.455 37.232 286.094 36.5272 287.403 35.1432L285.95 33.7688C285.02 34.7528 283.906 35.232 282.549 35.232V37.232ZM287.394 35.1534C288.769 33.7403 289.405 31.8506 289.405 29.608H287.405C287.405 31.4614 286.889 32.8037 285.96 33.7586L287.394 35.1534ZM303.427 12.184L302.733 12.9038L302.746 12.9164L302.759 12.9286L303.427 12.184ZM303.427 5.848L304.107 6.58079L304.108 6.57989L303.427 5.848ZM310.435 5.848L309.741 6.56784L309.754 6.58045L309.767 6.59257L310.435 5.848ZM310.435 12.184L311.115 12.9168L311.116 12.9159L310.435 12.184ZM311.059 16.216H312.059V15.216H311.059V16.216ZM311.059 43V44H312.059V43H311.059ZM302.851 43H301.851V44H302.851V43ZM302.851 16.216V15.216H301.851V16.216H302.851ZM306.979 12.432C305.745 12.432 304.811 12.0816 304.095 11.4394L302.759 12.9286C303.899 13.9504 305.333 14.432 306.979 14.432V12.432ZM304.121 11.4642C303.421 10.7892 303.083 9.99329 303.083 9.016H301.083C301.083 10.5347 301.641 11.8508 302.733 12.9038L304.121 11.4642ZM303.083 9.016C303.083 7.99938 303.426 7.21381 304.107 6.58079L302.747 5.1152C301.636 6.14618 301.083 7.47261 301.083 9.016H303.083ZM304.108 6.57989C304.826 5.91183 305.755 5.552 306.979 5.552V3.552C305.323 3.552 303.884 4.05617 302.746 5.1161L304.108 6.57989ZM306.979 5.552C308.165 5.552 309.056 5.90759 309.741 6.56784L311.129 5.12815C310.022 4.0604 308.609 3.552 306.979 3.552V5.552ZM309.767 6.59257C310.477 7.22913 310.827 8.01141 310.827 9.016H312.827C312.827 7.46059 312.249 6.13087 311.103 5.10343L309.767 6.59257ZM310.827 9.016C310.827 9.98139 310.482 10.7738 309.754 11.4521L311.116 12.9159C312.244 11.8662 312.827 10.5466 312.827 9.016H310.827ZM309.755 11.4512C309.072 12.0855 308.176 12.432 306.979 12.432V14.432C308.598 14.432 310.006 13.9465 311.115 12.9168L309.755 11.4512ZM310.059 16.216V43H312.059V16.216H310.059ZM311.059 42H302.851V44H311.059V42ZM303.851 43V16.216H301.851V43H303.851ZM302.851 17.216H311.059V15.216H302.851V17.216ZM359.403 18.952L358.685 19.6476L358.691 19.6534L359.403 18.952ZM362.379 43V44H363.379V43H362.379ZM354.219 43H353.219V44H354.219V43ZM352.827 24.472L352.096 25.1543L352.108 25.1669L352.12 25.1791L352.827 24.472ZM345.291 24.472L344.572 23.777L344.572 23.7774L345.291 24.472ZM343.947 43V44H344.947V43H343.947ZM335.787 43H334.787V44H335.787V43ZM334.395 24.472L333.664 25.1543L333.676 25.1669L333.688 25.1791L334.395 24.472ZM326.859 24.472L326.14 23.777L326.14 23.7774L326.859 24.472ZM325.515 43V44H326.515V43H325.515ZM317.307 43H316.307V44H317.307V43ZM317.307 16.216V15.216H316.307V16.216H317.307ZM325.515 16.216H326.515V15.216H325.515V16.216ZM325.515 19.576H324.515V22.5991L326.318 20.1723L325.515 19.576ZM328.779 16.936L329.209 17.8389L329.218 17.8347L329.226 17.8304L328.779 16.936ZM338.715 17.224L338.233 18.0999L338.24 18.1039L338.715 17.224ZM342.459 20.92L341.587 21.4086L342.408 22.8758L343.305 21.4533L342.459 20.92ZM351.483 16.928C354.595 16.928 356.956 17.862 358.685 19.6476L360.122 18.2564C357.947 16.01 355.028 14.928 351.483 14.928V16.928ZM358.691 19.6534C360.445 21.4358 361.379 23.9569 361.379 27.352H363.379C363.379 23.5791 362.33 20.5002 360.116 18.2506L358.691 19.6534ZM361.379 27.352V43H363.379V27.352H361.379ZM362.379 42H354.219V44H362.379V42ZM355.219 43V28.456H353.219V43H355.219ZM355.219 28.456C355.219 26.5499 354.704 24.9342 353.534 23.7649L352.12 25.1791C352.807 25.8658 353.219 26.9061 353.219 28.456H355.219ZM353.558 23.7897C352.433 22.5839 350.895 22.032 349.083 22.032V24.032C350.471 24.032 351.43 24.4401 352.096 25.1543L353.558 23.7897ZM349.083 22.032C347.27 22.032 345.725 22.584 344.572 23.777L346.01 25.167C346.713 24.44 347.696 24.032 349.083 24.032V22.032ZM344.572 23.7774C343.442 24.948 342.947 26.5591 342.947 28.456H344.947C344.947 26.8969 345.349 25.852 346.011 25.1666L344.572 23.7774ZM342.947 28.456V43H344.947V28.456H342.947ZM343.947 42H335.787V44H343.947V42ZM336.787 43V28.456H334.787V43H336.787ZM336.787 28.456C336.787 26.5499 336.272 24.9342 335.102 23.7649L333.688 25.1791C334.375 25.8658 334.787 26.9061 334.787 28.456H336.787ZM335.126 23.7897C334.001 22.5839 332.463 22.032 330.651 22.032V24.032C332.039 24.032 332.998 24.4401 333.664 25.1543L335.126 23.7897ZM330.651 22.032C328.838 22.032 327.293 22.584 326.14 23.777L327.578 25.167C328.281 24.44 329.264 24.032 330.651 24.032V22.032ZM326.14 23.7774C325.01 24.948 324.515 26.5591 324.515 28.456H326.515C326.515 26.8969 326.917 25.852 327.579 25.1666L326.14 23.7774ZM324.515 28.456V43H326.515V28.456H324.515ZM325.515 42H317.307V44H325.515V42ZM318.307 43V16.216H316.307V43H318.307ZM317.307 17.216H325.515V15.216H317.307V17.216ZM324.515 16.216V19.576H326.515V16.216H324.515ZM326.318 20.1723C327.046 19.1921 328.002 18.4135 329.209 17.8389L328.349 16.0331C326.868 16.7385 325.648 17.7199 324.712 18.9797L326.318 20.1723ZM329.226 17.8304C330.415 17.2363 331.778 16.928 333.339 16.928V14.928C331.508 14.928 329.832 15.2917 328.332 16.0416L329.226 17.8304ZM333.339 16.928C335.208 16.928 336.83 17.3271 338.233 18.0998L339.198 16.3482C337.464 15.3929 335.502 14.928 333.339 14.928V16.928ZM338.24 18.1039C339.672 18.877 340.783 19.9726 341.587 21.4086L343.332 20.4314C342.344 18.6674 340.959 17.299 339.19 16.3441L338.24 18.1039ZM343.305 21.4533C344.142 20.1267 345.284 19.0372 346.753 18.185L345.75 16.455C344.019 17.4588 342.633 18.7693 341.613 20.3867L343.305 21.4533ZM346.753 18.185C348.197 17.3473 349.768 16.928 351.483 16.928V14.928C349.423 14.928 347.505 15.4367 345.75 16.455L346.753 18.185Z" fill="white"/>
<path d="M18.4944 69.576C18.4944 70.552 18.2704 71.448 17.8224 72.264C17.3744 73.064 16.6864 73.712 15.7584 74.208C14.8304 74.704 13.6784 74.952 12.3024 74.952H9.75843V81H5.65443V64.152H12.3024C13.6464 64.152 14.7824 64.384 15.7104 64.848C16.6384 65.312 17.3344 65.952 17.7984 66.768C18.2624 67.584 18.4944 68.52 18.4944 69.576ZM11.9904 71.688C12.7744 71.688 13.3584 71.504 13.7424 71.136C14.1264 70.768 14.3184 70.248 14.3184 69.576C14.3184 68.904 14.1264 68.384 13.7424 68.016C13.3584 67.648 12.7744 67.464 11.9904 67.464H9.75843V71.688H11.9904ZM25.035 69.84C25.515 69.104 26.115 68.528 26.835 68.112C27.555 67.68 28.355 67.464 29.235 67.464V71.808H28.107C27.083 71.808 26.315 72.032 25.803 72.48C25.291 72.912 25.035 73.68 25.035 74.784V81H20.931V67.608H25.035V69.84ZM37.5926 81.192C36.2806 81.192 35.0966 80.912 34.0406 80.352C33.0006 79.792 32.1766 78.992 31.5686 77.952C30.9766 76.912 30.6806 75.696 30.6806 74.304C30.6806 72.928 30.9846 71.72 31.5926 70.68C32.2006 69.624 33.0326 68.816 34.0886 68.256C35.1446 67.696 36.3286 67.416 37.6406 67.416C38.9526 67.416 40.1366 67.696 41.1926 68.256C42.2486 68.816 43.0806 69.624 43.6886 70.68C44.2966 71.72 44.6006 72.928 44.6006 74.304C44.6006 75.68 44.2886 76.896 43.6646 77.952C43.0566 78.992 42.2166 79.792 41.1446 80.352C40.0886 80.912 38.9046 81.192 37.5926 81.192ZM37.5926 77.64C38.3766 77.64 39.0406 77.352 39.5846 76.776C40.1446 76.2 40.4246 75.376 40.4246 74.304C40.4246 73.232 40.1526 72.408 39.6086 71.832C39.0806 71.256 38.4246 70.968 37.6406 70.968C36.8406 70.968 36.1766 71.256 35.6486 71.832C35.1206 72.392 34.8566 73.216 34.8566 74.304C34.8566 75.376 35.1126 76.2 35.6246 76.776C36.1526 77.352 36.8086 77.64 37.5926 77.64ZM46.2619 74.28C46.2619 72.904 46.5179 71.696 47.0299 70.656C47.5579 69.616 48.2699 68.816 49.1659 68.256C50.0619 67.696 51.0619 67.416 52.1659 67.416C53.0459 67.416 53.8459 67.6 54.5659 67.968C55.3019 68.336 55.8779 68.832 56.2939 69.456V63.24H60.3979V81H56.2939V79.08C55.9099 79.72 55.3579 80.232 54.6379 80.616C53.9339 81 53.1099 81.192 52.1659 81.192C51.0619 81.192 50.0619 80.912 49.1659 80.352C48.2699 79.776 47.5579 78.968 47.0299 77.928C46.5179 76.872 46.2619 75.656 46.2619 74.28ZM56.2939 74.304C56.2939 73.28 56.0059 72.472 55.4299 71.88C54.8699 71.288 54.1819 70.992 53.3659 70.992C52.5499 70.992 51.8539 71.288 51.2779 71.88C50.7179 72.456 50.4379 73.256 50.4379 74.28C50.4379 75.304 50.7179 76.12 51.2779 76.728C51.8539 77.32 52.5499 77.616 53.3659 77.616C54.1819 77.616 54.8699 77.32 55.4299 76.728C56.0059 76.136 56.2939 75.328 56.2939 74.304ZM76.8909 67.608V81H72.7869V79.176C72.3709 79.768 71.8029 80.248 71.0829 80.616C70.3789 80.968 69.5949 81.144 68.7309 81.144C67.7069 81.144 66.8029 80.92 66.0189 80.472C65.2349 80.008 64.6269 79.344 64.1949 78.48C63.7629 77.616 63.5469 76.6 63.5469 75.432V67.608H67.6269V74.88C67.6269 75.776 67.8589 76.472 68.3229 76.968C68.7869 77.464 69.4109 77.712 70.1949 77.712C70.9949 77.712 71.6269 77.464 72.0909 76.968C72.5549 76.472 72.7869 75.776 72.7869 74.88V67.608H76.8909ZM79.3228 74.304C79.3228 72.912 79.6028 71.696 80.1628 70.656C80.7388 69.616 81.5308 68.816 82.5388 68.256C83.5628 67.696 84.7308 67.416 86.0428 67.416C87.7228 67.416 89.1228 67.856 90.2428 68.736C91.3788 69.616 92.1228 70.856 92.4748 72.456H88.1068C87.7388 71.432 87.0268 70.92 85.9708 70.92C85.2188 70.92 84.6188 71.216 84.1708 71.808C83.7228 72.384 83.4988 73.216 83.4988 74.304C83.4988 75.392 83.7228 76.232 84.1708 76.824C84.6188 77.4 85.2188 77.688 85.9708 77.688C87.0268 77.688 87.7388 77.176 88.1068 76.152H92.4748C92.1228 77.72 91.3788 78.952 90.2428 79.848C89.1068 80.744 87.7068 81.192 86.0428 81.192C84.7308 81.192 83.5628 80.912 82.5388 80.352C81.5308 79.792 80.7388 78.992 80.1628 77.952C79.6028 76.912 79.3228 75.696 79.3228 74.304ZM102.434 77.52V81H100.346C98.8581 81 97.6981 80.64 96.8661 79.92C96.0341 79.184 95.6181 77.992 95.6181 76.344V71.016H93.9861V67.608H95.6181V64.344H99.7221V67.608H102.41V71.016H99.7221V76.392C99.7221 76.792 99.8181 77.08 100.01 77.256C100.202 77.432 100.522 77.52 100.97 77.52H102.434ZM116.718 64.152C118.494 64.152 120.046 64.504 121.374 65.208C122.702 65.912 123.726 66.904 124.446 68.184C125.182 69.448 125.55 70.912 125.55 72.576C125.55 74.224 125.182 75.688 124.446 76.968C123.726 78.248 122.694 79.24 121.35 79.944C120.022 80.648 118.478 81 116.718 81H110.406V64.152H116.718ZM116.454 77.448C118.006 77.448 119.214 77.024 120.078 76.176C120.942 75.328 121.374 74.128 121.374 72.576C121.374 71.024 120.942 69.816 120.078 68.952C119.214 68.088 118.006 67.656 116.454 67.656H114.51V77.448H116.454ZM140.767 74.088C140.767 74.472 140.743 74.872 140.695 75.288H131.407C131.471 76.12 131.735 76.76 132.199 77.208C132.679 77.64 133.263 77.856 133.951 77.856C134.975 77.856 135.687 77.424 136.087 76.56H140.455C140.231 77.44 139.823 78.232 139.231 78.936C138.655 79.64 137.927 80.192 137.047 80.592C136.167 80.992 135.183 81.192 134.095 81.192C132.783 81.192 131.615 80.912 130.591 80.352C129.567 79.792 128.767 78.992 128.191 77.952C127.615 76.912 127.327 75.696 127.327 74.304C127.327 72.912 127.607 71.696 128.167 70.656C128.743 69.616 129.543 68.816 130.567 68.256C131.591 67.696 132.767 67.416 134.095 67.416C135.391 67.416 136.543 67.688 137.551 68.232C138.559 68.776 139.343 69.552 139.903 70.56C140.479 71.568 140.767 72.744 140.767 74.088ZM136.567 73.008C136.567 72.304 136.327 71.744 135.847 71.328C135.367 70.912 134.767 70.704 134.047 70.704C133.359 70.704 132.775 70.904 132.295 71.304C131.831 71.704 131.543 72.272 131.431 73.008H136.567ZM148.681 81.192C147.513 81.192 146.473 80.992 145.561 80.592C144.649 80.192 143.929 79.648 143.401 78.96C142.873 78.256 142.577 77.472 142.513 76.608H146.569C146.617 77.072 146.833 77.448 147.217 77.736C147.601 78.024 148.073 78.168 148.633 78.168C149.145 78.168 149.537 78.072 149.809 77.88C150.097 77.672 150.241 77.408 150.241 77.088C150.241 76.704 150.041 76.424 149.641 76.248C149.241 76.056 148.593 75.848 147.697 75.624C146.737 75.4 145.937 75.168 145.297 74.928C144.657 74.672 144.105 74.28 143.641 73.752C143.177 73.208 142.945 72.48 142.945 71.568C142.945 70.8 143.153 70.104 143.569 69.48C144.001 68.84 144.625 68.336 145.441 67.968C146.273 67.6 147.257 67.416 148.393 67.416C150.073 67.416 151.393 67.832 152.353 68.664C153.329 69.496 153.889 70.6 154.033 71.976H150.241C150.177 71.512 149.969 71.144 149.617 70.872C149.281 70.6 148.833 70.464 148.273 70.464C147.793 70.464 147.425 70.56 147.169 70.752C146.913 70.928 146.785 71.176 146.785 71.496C146.785 71.88 146.985 72.168 147.385 72.36C147.801 72.552 148.441 72.744 149.305 72.936C150.297 73.192 151.105 73.448 151.729 73.704C152.353 73.944 152.897 74.344 153.361 74.904C153.841 75.448 154.089 76.184 154.105 77.112C154.105 77.896 153.881 78.6 153.433 79.224C153.001 79.832 152.369 80.312 151.537 80.664C150.721 81.016 149.769 81.192 148.681 81.192ZM158.979 66.216C158.259 66.216 157.667 66.008 157.203 65.592C156.755 65.16 156.531 64.632 156.531 64.008C156.531 63.368 156.755 62.84 157.203 62.424C157.667 61.992 158.259 61.776 158.979 61.776C159.683 61.776 160.259 61.992 160.707 62.424C161.171 62.84 161.403 63.368 161.403 64.008C161.403 64.632 161.171 65.16 160.707 65.592C160.259 66.008 159.683 66.216 158.979 66.216ZM161.019 67.608V81H156.915V67.608H161.019ZM169.381 67.416C170.325 67.416 171.149 67.608 171.853 67.992C172.573 68.376 173.125 68.88 173.509 69.504V67.608H177.613V80.976C177.613 82.208 177.365 83.32 176.869 84.312C176.389 85.32 175.645 86.12 174.637 86.712C173.645 87.304 172.405 87.6 170.917 87.6C168.933 87.6 167.325 87.128 166.093 86.184C164.861 85.256 164.157 83.992 163.981 82.392H168.037C168.165 82.904 168.469 83.304 168.949 83.592C169.429 83.896 170.021 84.048 170.725 84.048C171.573 84.048 172.245 83.8 172.741 83.304C173.253 82.824 173.509 82.048 173.509 80.976V79.08C173.109 79.704 172.557 80.216 171.853 80.616C171.149 81 170.325 81.192 169.381 81.192C168.277 81.192 167.277 80.912 166.381 80.352C165.485 79.776 164.773 78.968 164.245 77.928C163.733 76.872 163.477 75.656 163.477 74.28C163.477 72.904 163.733 71.696 164.245 70.656C164.773 69.616 165.485 68.816 166.381 68.256C167.277 67.696 168.277 67.416 169.381 67.416ZM173.509 74.304C173.509 73.28 173.221 72.472 172.645 71.88C172.085 71.288 171.397 70.992 170.581 70.992C169.765 70.992 169.069 71.288 168.493 71.88C167.933 72.456 167.653 73.256 167.653 74.28C167.653 75.304 167.933 76.12 168.493 76.728C169.069 77.32 169.765 77.616 170.581 77.616C171.397 77.616 172.085 77.32 172.645 76.728C173.221 76.136 173.509 75.328 173.509 74.304ZM189.043 67.464C190.611 67.464 191.859 67.976 192.787 69C193.731 70.008 194.203 71.4 194.203 73.176V81H190.123V73.728C190.123 72.832 189.891 72.136 189.427 71.64C188.963 71.144 188.339 70.896 187.555 70.896C186.771 70.896 186.147 71.144 185.683 71.64C185.219 72.136 184.987 72.832 184.987 73.728V81H180.883V67.608H184.987V69.384C185.403 68.792 185.963 68.328 186.667 67.992C187.371 67.64 188.163 67.464 189.043 67.464ZM209.978 74.088C209.978 74.472 209.954 74.872 209.906 75.288H200.618C200.682 76.12 200.946 76.76 201.41 77.208C201.89 77.64 202.474 77.856 203.162 77.856C204.186 77.856 204.898 77.424 205.298 76.56H209.666C209.442 77.44 209.034 78.232 208.442 78.936C207.866 79.64 207.138 80.192 206.258 80.592C205.378 80.992 204.394 81.192 203.306 81.192C201.994 81.192 200.826 80.912 199.802 80.352C198.778 79.792 197.978 78.992 197.402 77.952C196.826 76.912 196.538 75.696 196.538 74.304C196.538 72.912 196.818 71.696 197.378 70.656C197.954 69.616 198.754 68.816 199.778 68.256C200.802 67.696 201.978 67.416 203.306 67.416C204.602 67.416 205.754 67.688 206.762 68.232C207.77 68.776 208.554 69.552 209.114 70.56C209.69 71.568 209.978 72.744 209.978 74.088ZM205.778 73.008C205.778 72.304 205.538 71.744 205.058 71.328C204.578 70.912 203.978 70.704 203.258 70.704C202.57 70.704 201.986 70.904 201.506 71.304C201.042 71.704 200.754 72.272 200.642 73.008H205.778ZM216.547 69.84C217.027 69.104 217.627 68.528 218.347 68.112C219.067 67.68 219.867 67.464 220.747 67.464V71.808H219.619C218.595 71.808 217.827 72.032 217.315 72.48C216.803 72.912 216.547 73.68 216.547 74.784V81H212.443V67.608H216.547V69.84Z" fill="#C4C8CC"/>
</svg>
